WorkSans-Bold.ufo
<glyph name="dollar" format="2">
  <advance width="653"/>
  <unicode hex="0024"/>
  <outline>
    <contour>
      <point x="394" y="-80" type="line"/>
      <point x="394" y="3" type="line"/>
      <point x="534" y="16"/>
      <point x="639" y="83"/>
      <point x="639" y="197" type="curve" smooth="yes"/>
      <point x="639" y="344"/>
      <point x="507" y="381"/>
      <point x="394" y="403" type="curve"/>
      <point x="394" y="509" type="line"/>
      <point x="458" y="502"/>
      <point x="509" y="477"/>
      <point x="551" y="426" type="curve"/>
      <point x="649" y="552" type="line"/>
      <point x="590" y="606"/>
      <point x="525" y="649"/>
      <point x="394" y="658" type="curve"/>
      <point x="394" y="740" type="line"/>
      <point x="279" y="740" type="line"/>
      <point x="279" y="657" type="line"/>
      <point x="118" y="641"/>
      <point x="30" y="560"/>
      <point x="30" y="450" type="curve" smooth="yes"/>
      <point x="30" y="305"/>
      <point x="165" y="271"/>
      <point x="279" y="250" type="curve"/>
      <point x="279" y="150" type="line"/>
      <point x="203" y="158"/>
      <point x="143" y="185"/>
      <point x="102" y="235" type="curve"/>
      <point x="11" y="96" type="line"/>
      <point x="76" y="42"/>
      <point x="149" y="9"/>
      <point x="279" y="2" type="curve"/>
      <point x="279" y="-80" type="line"/>
    </contour>
    <contour>
      <point x="394" y="225" type="line"/>
      <point x="417" y="216"/>
      <point x="432" y="205"/>
      <point x="432" y="188" type="curve" smooth="yes"/>
      <point x="432" y="174"/>
      <point x="420" y="162"/>
      <point x="394" y="155" type="curve"/>
    </contour>
    <contour>
      <point x="254" y="436"/>
      <point x="238" y="447"/>
      <point x="238" y="464" type="curve" smooth="yes"/>
      <point x="238" y="481"/>
      <point x="253" y="494"/>
      <point x="279" y="503" type="curve"/>
      <point x="279" y="428" type="line"/>
    </contour>
  </outline>
</glyph>
<glyph name="asterisk" format="2">
  <advance width="599"/>
  <unicode hex="002A"/>
  <outline>
    <contour>
      <point x="299" y="471" type="line"/>
      <point x="262" y="444" type="line"/>
      <point x="305" y="339" type="line"/>
      <point x="387" y="216" type="line"/>
      <point x="515" y="309" type="line"/>
      <point x="424" y="425" type="line"/>
      <point x="336" y="499" type="line"/>
    </contour>
    <contour>
      <point x="175" y="425" type="line"/>
      <point x="83" y="309" type="line"/>
      <point x="211" y="216" type="line"/>
      <point x="293" y="339" type="line"/>
      <point x="336" y="444" type="line"/>
      <point x="299" y="471" type="line"/>
      <point x="262" y="499" type="line"/>
    </contour>
    <contour>
      <point x="29" y="476" type="line"/>
      <point x="171" y="436" type="line"/>
      <point x="285" y="428" type="line"/>
      <point x="299" y="471" type="line"/>
      <point x="313" y="515" type="line"/>
      <point x="216" y="575" type="line"/>
      <point x="78" y="627" type="line"/>
    </contour>
    <contour>
      <point x="220" y="730" type="line"/>
      <point x="226" y="583" type="line"/>
      <point x="253" y="471" type="line"/>
      <point x="299" y="471" type="line"/>
      <point x="345" y="471" type="line"/>
      <point x="372" y="583" type="line"/>
      <point x="378" y="730" type="line"/>
    </contour>
    <contour>
      <point x="382" y="575" type="line"/>
      <point x="285" y="515" type="line"/>
      <point x="299" y="471" type="line"/>
      <point x="313" y="428" type="line"/>
      <point x="427" y="436" type="line"/>
      <point x="570" y="476" type="line"/>
      <point x="521" y="627" type="line"/>
    </contour>
  </outline>
</glyph>
<glyph name="three" format="2">
  <advance width="600"/>
  <unicode hex="0033"/>
  <outline>
    <contour>
      <point x="158" y="670"/>
      <point x="42" y="626"/>
      <point x="26" y="479" type="curve"/>
      <point x="227" y="417" type="line"/>
      <point x="226" y="482"/>
      <point x="256" y="499"/>
      <point x="287" y="499" type="curve" smooth="yes"/>
      <point x="317" y="499"/>
      <point x="336" y="479"/>
      <point x="336" y="446" type="curve" smooth="yes"/>
      <point x="336" y="410"/>
      <point x="319" y="392"/>
      <point x="274" y="392" type="curve" smooth="yes"/>
      <point x="242" y="392" type="line"/>
      <point x="242" y="260" type="line"/>
      <point x="287" y="260" type="line" smooth="yes"/>
      <point x="331" y="260"/>
      <point x="348" y="244"/>
      <point x="349" y="213" type="curve" smooth="yes"/>
      <point x="350" y="175"/>
      <point x="325" y="161"/>
      <point x="291" y="161" type="curve" smooth="yes"/>
      <point x="258" y="161"/>
      <point x="224" y="174"/>
      <point x="227" y="243" type="curve"/>
      <point x="17" y="158" type="line"/>
      <point x="51" y="34"/>
      <point x="142" y="-10"/>
      <point x="299" y="-10" type="curve" smooth="yes"/>
      <point x="452" y="-10"/>
      <point x="571" y="63"/>
      <point x="571" y="182" type="curve" smooth="yes"/>
      <point x="571" y="321"/>
      <point x="454" y="328"/>
      <point x="435" y="328" type="curve"/>
      <point x="435" y="332" type="line"/>
      <point x="454" y="332"/>
      <point x="559" y="354"/>
      <point x="559" y="476" type="curve" smooth="yes"/>
      <point x="559" y="602"/>
      <point x="465" y="670"/>
      <point x="304" y="670" type="curve" smooth="yes"/>
    </contour>
  </outline>
</glyph>
<glyph name="seven" format="2">
  <advance width="650"/>
  <unicode hex="0037"/>
  <outline>
    <contour>
      <point x="43" y="485" type="line"/>
      <point x="520" y="485" type="line"/>
      <point x="468" y="546" type="line"/>
      <point x="269" y="380"/>
      <point x="193" y="216"/>
      <point x="193" y="0" type="curve"/>
      <point x="421" y="0" type="line"/>
      <point x="421" y="189"/>
      <point x="461" y="356"/>
      <point x="625" y="506" type="curve"/>
      <point x="625" y="660" type="line"/>
      <point x="43" y="660" type="line"/>
    </contour>
  </outline>
</glyph>
<glyph name="eight" format="2">
  <advance width="634"/>
  <unicode hex="0038"/>
  <outline>
    <contour>
      <point x="147" y="667"/>
      <point x="45" y="594"/>
      <point x="45" y="474" type="curve" smooth="yes"/>
      <point x="45" y="406"/>
      <point x="85" y="356"/>
      <point x="157" y="331" type="curve"/>
      <point x="157" y="330" type="line"/>
      <point x="75" y="305"/>
      <point x="30" y="254"/>
      <point x="30" y="173" type="curve" smooth="yes"/>
      <point x="30" y="60"/>
      <point x="135" y="-10"/>
      <point x="317" y="-10" type="curve" smooth="yes"/>
      <point x="499" y="-10"/>
      <point x="604" y="60"/>
      <point x="604" y="173" type="curve" smooth="yes"/>
      <point x="604" y="254"/>
      <point x="559" y="305"/>
      <point x="477" y="330" type="curve"/>
      <point x="477" y="331" type="line"/>
      <point x="549" y="356"/>
      <point x="589" y="406"/>
      <point x="589" y="474" type="curve" smooth="yes"/>
      <point x="589" y="594"/>
      <point x="487" y="667"/>
      <point x="317" y="667" type="curve" smooth="yes"/>
    </contour>
    <contour>
      <point x="355" y="509"/>
      <point x="378" y="488"/>
      <point x="378" y="453" type="curve" smooth="yes"/>
      <point x="378" y="418"/>
      <point x="355" y="397"/>
      <point x="317" y="397" type="curve" smooth="yes"/>
      <point x="279" y="397"/>
      <point x="256" y="418"/>
      <point x="256" y="453" type="curve" smooth="yes"/>
      <point x="256" y="488"/>
      <point x="279" y="509"/>
      <point x="317" y="509" type="curve" smooth="yes"/>
    </contour>
    <contour>
      <point x="275" y="148"/>
      <point x="252" y="169"/>
      <point x="252" y="204" type="curve" smooth="yes"/>
      <point x="252" y="240"/>
      <point x="275" y="260"/>
      <point x="317" y="260" type="curve" smooth="yes"/>
      <point x="359" y="260"/>
      <point x="382" y="240"/>
      <point x="382" y="204" type="curve" smooth="yes"/>
      <point x="382" y="169"/>
      <point x="359" y="148"/>
      <point x="317" y="148" type="curve" smooth="yes"/>
    </contour>
  </outline>
</glyph>
<glyph name="less" format="2">
  <advance width="604"/>
  <unicode hex="003C"/>
  <outline>
    <contour>
      <point x="557" y="386" type="line"/>
      <point x="557" y="599" type="line"/>
      <point x="57" y="386" type="line"/>
      <point x="57" y="244" type="line"/>
    </contour>
    <contour>
      <point x="57" y="345" type="line"/>
      <point x="57" y="203" type="line"/>
      <point x="557" y="-10" type="line"/>
      <point x="557" y="203" type="line"/>
    </contour>
  </outline>
</glyph>
<glyph name="equal" format="2">
  <advance width="604"/>
  <unicode hex="003D"/>
  <outline>
    <contour>
      <point x="65" y="511" type="line"/>
      <point x="65" y="366" type="line"/>
      <point x="539" y="366" type="line"/>
      <point x="539" y="511" type="line"/>
    </contour>
    <contour>
      <point x="65" y="284" type="line"/>
      <point x="65" y="139" type="line"/>
      <point x="539" y="139" type="line"/>
      <point x="539" y="284" type="line"/>
    </contour>
  </outline>
</glyph>
<glyph name="B" format="2">
  <advance width="704"/>
  <unicode hex="0042"/>
  <anchor x="327" y="0" name="bottom"/>
  <anchor x="337" y="0" name="bottomC"/>
  <anchor x="422" y="0" name="ogonek"/>
  <anchor x="327" y="660" name="top"/>
  <outline>
    <contour>
      <point x="454" y="0" type="line" smooth="yes"/>
      <point x="615" y="0"/>
      <point x="692" y="58"/>
      <point x="692" y="174" type="curve" smooth="yes"/>
      <point x="692" y="259"/>
      <point x="641" y="319"/>
      <point x="526" y="331" type="curve"/>
      <point x="526" y="332" type="line"/>
      <point x="628" y="346"/>
      <point x="675" y="405"/>
      <point x="675" y="484" type="curve" smooth="yes"/>
      <point x="675" y="601"/>
      <point x="595" y="659"/>
      <point x="428" y="660" type="curve" smooth="yes"/>
      <point x="50" y="660" type="line"/>
      <point x="50" y="0" type="line"/>
    </contour>
    <contour>
      <point x="273" y="248" type="line"/>
      <point x="392" y="248" type="line" smooth="yes"/>
      <point x="434" y="248"/>
      <point x="454" y="232"/>
      <point x="454" y="201" type="curve" smooth="yes"/>
      <point x="454" y="168"/>
      <point x="434" y="152"/>
      <point x="392" y="152" type="curve" smooth="yes"/>
      <point x="273" y="152" type="line"/>
    </contour>
    <contour>
      <point x="273" y="500" type="line"/>
      <point x="375" y="500" type="line" smooth="yes"/>
      <point x="417" y="500"/>
      <point x="437" y="484"/>
      <point x="437" y="452" type="curve" smooth="yes"/>
      <point x="437" y="420"/>
      <point x="417" y="404"/>
      <point x="375" y="404" type="curve" smooth="yes"/>
      <point x="273" y="404" type="line"/>
    </contour>
  </outline>
</glyph>
<glyph name="F" format="2">
  <advance width="614"/>
  <unicode hex="0046"/>
  <anchor x="167" y="0" name="bottom"/>
  <anchor x="167" y="0" name="bottomC"/>
  <anchor x="283" y="0" name="ogonek"/>
  <anchor x="307" y="660" name="top"/>
  <outline>
    <contour>
      <point x="50" y="660" type="line"/>
      <point x="50" y="0" type="line"/>
      <point x="283" y="0" type="line"/>
      <point x="283" y="660" type="line"/>
    </contour>
    <contour>
      <point x="162" y="397" type="line"/>
      <point x="162" y="226" type="line"/>
      <point x="537" y="226" type="line"/>
      <point x="537" y="397" type="line"/>
    </contour>
    <contour>
      <point x="162" y="660" type="line"/>
      <point x="162" y="489" type="line"/>
      <point x="597" y="489" type="line"/>
      <point x="597" y="660" type="line"/>
    </contour>
  </outline>
</glyph>
<glyph name="H" format="2">
  <advance width="747"/>
  <unicode hex="0048"/>
  <anchor x="374" y="0" name="bottom"/>
  <anchor x="592" y="0" name="bottomC"/>
  <anchor x="708" y="0" name="ogonek"/>
  <anchor x="374" y="660" name="top"/>
  <outline>
    <contour>
      <point x="464" y="660" type="line"/>
      <point x="464" y="0" type="line"/>
      <point x="697" y="0" type="line"/>
      <point x="697" y="660" type="line"/>
    </contour>
    <contour>
      <point x="50" y="660" type="line"/>
      <point x="50" y="0" type="line"/>
      <point x="283" y="0" type="line"/>
      <point x="283" y="660" type="line"/>
    </contour>
    <contour>
      <point x="162" y="417" type="line"/>
      <point x="162" y="246" type="line"/>
      <point x="593" y="246" type="line"/>
      <point x="593" y="417" type="line"/>
    </contour>
  </outline>
</glyph>
<glyph name="R" format="2">
  <advance width="705"/>
  <unicode hex="0052"/>
  <anchor x="362" y="0" name="bottom"/>
  <anchor x="596" y="0" name="bottomC"/>
  <anchor x="712" y="0" name="ogonek"/>
  <anchor x="334" y="660" name="top"/>
  <outline>
    <contour>
      <point x="208" y="660" type="line"/>
      <point x="208" y="494" type="line"/>
      <point x="361" y="494" type="line" smooth="yes"/>
      <point x="420" y="494"/>
      <point x="442" y="477"/>
      <point x="442" y="433" type="curve" smooth="yes"/>
      <point x="442" y="388"/>
      <point x="420" y="372"/>
      <point x="361" y="372" type="curve" smooth="yes"/>
      <point x="208" y="372" type="line"/>
      <point x="208" y="219" type="line"/>
      <point x="408" y="219" type="line" smooth="yes"/>
      <point x="584" y="219"/>
      <point x="675" y="293"/>
      <point x="675" y="439" type="curve" smooth="yes"/>
      <point x="675" y="586"/>
      <point x="584" y="660"/>
      <point x="408" y="660" type="curve" smooth="yes"/>
    </contour>
    <contour>
      <point x="50" y="660" type="line"/>
      <point x="50" y="0" type="line"/>
      <point x="278" y="0" type="line"/>
      <point x="278" y="660" type="line"/>
    </contour>
    <contour>
      <point x="305" y="289" type="line"/>
      <point x="459" y="0" type="line"/>
      <point x="712" y="0" type="line"/>
      <point x="506" y="323" type="line"/>
    </contour>
  </outline>
</glyph>
<glyph name="T" format="2">
  <advance width="686"/>
  <unicode hex="0054"/>
  <anchor x="343" y="0" name="bottom"/>
  <anchor x="373" y="0" name="bottomC"/>
  <anchor x="343" y="330" name="center"/>
  <anchor x="460" y="0" name="ogonek"/>
  <anchor x="343" y="660" name="top"/>
  <outline>
    <contour>
      <point x="227" y="660" type="line"/>
      <point x="227" y="0" type="line"/>
      <point x="460" y="0" type="line"/>
      <point x="460" y="660" type="line"/>
    </contour>
    <contour>
      <point x="20" y="660" type="line"/>
      <point x="20" y="489" type="line"/>
      <point x="666" y="489" type="line"/>
      <point x="666" y="660" type="line"/>
    </contour>
  </outline>
</glyph>
<glyph name="b" format="2">
  <advance width="627"/>
  <unicode hex="0062"/>
  <anchor x="317" y="0" name="bottom"/>
  <anchor x="441" y="0" name="bottomC"/>
  <anchor x="493" y="10" name="ogonek"/>
  <anchor x="154" y="700" name="top"/>
  <outline>
    <contour>
      <point x="39" y="700" type="line"/>
      <point x="39" y="219" type="line"/>
      <point x="39" y="0" type="line"/>
      <point x="241" y="0" type="line"/>
      <point x="249" y="162" type="line"/>
      <point x="269" y="219" type="line"/>
      <point x="269" y="700" type="line"/>
    </contour>
    <component base="bowl" xScale="-1" xOffset="682"/>
  </outline>
</glyph>
<glyph name="g" format="2">
  <advance width="578"/>
  <unicode hex="0067"/>
  <anchor x="298" y="-210" name="bottom"/>
  <anchor x="298" y="-210" name="bottomC"/>
  <anchor x="423" y="-200" name="ogonek"/>
  <anchor x="255" y="500" name="top"/>
  <outline>
    <contour>
      <point x="429" y="677"/>
      <point x="387" y="566"/>
      <point x="387" y="474" type="curve"/>
      <point x="454" y="454" type="line"/>
      <point x="454" y="494"/>
      <point x="497" y="539"/>
      <point x="577" y="520" type="curve"/>
      <point x="558" y="662" type="line"/>
    </contour>
    <component base="gbase" xOffset="-6"/>
  </outline>
</glyph>
<glyph name="h" format="2">
  <advance width="620"/>
  <unicode hex="0068"/>
  <anchor x="303" y="0" name="bottom"/>
  <anchor x="467" y="0" name="bottomC"/>
  <anchor x="582" y="0" name="ogonek"/>
  <anchor x="154" y="700" name="top"/>
  <outline>
    <contour>
      <point x="39" y="700" type="line"/>
      <point x="39" y="0" type="line"/>
      <point x="269" y="0" type="line"/>
      <point x="269" y="700" type="line"/>
    </contour>
    <contour>
      <point x="309" y="510"/>
      <point x="248" y="418"/>
      <point x="248" y="262" type="curve"/>
      <point x="269" y="262" type="line"/>
      <point x="269" y="316"/>
      <point x="284" y="341"/>
      <point x="317" y="341" type="curve" smooth="yes"/>
      <point x="341" y="341"/>
      <point x="352" y="327"/>
      <point x="352" y="282" type="curve" smooth="yes"/>
      <point x="352" y="0" type="line"/>
      <point x="582" y="0" type="line"/>
      <point x="582" y="342" type="line" smooth="yes"/>
      <point x="582" y="449"/>
      <point x="524" y="510"/>
      <point x="425" y="510" type="curve" smooth="yes"/>
    </contour>
  </outline>
</glyph>
<glyph name="i" format="2">
  <advance width="308"/>
  <unicode hex="0069"/>
  <anchor x="154" y="0" name="bottom"/>
  <anchor x="154" y="0" name="bottomC"/>
  <anchor x="250" y="10" name="ogonek"/>
  <anchor x="154" y="714" name="top"/>
  <outline>
    <contour>
      <point x="245" y="532"/>
      <point x="279" y="558"/>
      <point x="279" y="628" type="curve" smooth="yes"/>
      <point x="279" y="698"/>
      <point x="245" y="724"/>
      <point x="154" y="724" type="curve" smooth="yes"/>
      <point x="63" y="724"/>
      <point x="29" y="698"/>
      <point x="29" y="628" type="curve" smooth="yes"/>
      <point x="29" y="558"/>
      <point x="63" y="532"/>
      <point x="154" y="532" type="curve" smooth="yes"/>
    </contour>
    <component base="idotless"/>
  </outline>
</glyph>
<glyph name="v" format="2">
  <advance width="588"/>
  <unicode hex="0076"/>
  <anchor x="294" y="0" name="bottom"/>
  <anchor x="294" y="0" name="bottomC"/>
  <anchor x="437" y="0" name="ogonek"/>
  <anchor x="294" y="500" name="top"/>
  <outline>
    <contour>
      <point x="360" y="500" type="line"/>
      <point x="267" y="0" type="line"/>
      <point x="437" y="0" type="line"/>
      <point x="598" y="500" type="line"/>
    </contour>
    <contour>
      <point x="-10" y="500" type="line"/>
      <point x="151" y="0" type="line"/>
      <point x="321" y="0" type="line"/>
      <point x="228" y="500" type="line"/>
    </contour>
  </outline>
</glyph>
<glyph name="w" format="2">
  <advance width="942"/>
  <unicode hex="0077"/>
  <anchor x="471" y="0" name="bottom"/>
  <anchor x="672" y="0" name="bottomC"/>
  <anchor x="815" y="0" name="ogonek"/>
  <anchor x="471" y="500" name="top"/>
  <outline>
    <contour>
      <point x="411" y="500" type="line"/>
      <point x="529" y="0" type="line"/>
      <point x="689" y="0" type="line"/>
      <point x="584" y="500" type="line"/>
    </contour>
    <contour>
      <point x="-9" y="500" type="line"/>
      <point x="127" y="0" type="line"/>
      <point x="312" y="0" type="line"/>
      <point x="229" y="500" type="line"/>
    </contour>
    <contour>
      <point x="358" y="500" type="line"/>
      <point x="253" y="0" type="line"/>
      <point x="413" y="0" type="line"/>
      <point x="531" y="500" type="line"/>
    </contour>
    <contour>
      <point x="713" y="500" type="line"/>
      <point x="630" y="0" type="line"/>
      <point x="815" y="0" type="line"/>
      <point x="951" y="500" type="line"/>
    </contour>
  </outline>
</glyph>
<glyph name="y" format="2">
  <advance width="594"/>
  <unicode hex="0079"/>
  <anchor x="206" y="-210" name="bottom"/>
  <anchor x="169" y="-210" name="bottomC"/>
  <anchor x="212" y="-210" name="ogonek"/>
  <anchor x="323" y="500" name="top"/>
  <outline>
    <contour>
      <point x="379" y="500" type="line"/>
      <point x="329" y="243" type="line"/>
      <point x="307" y="125" type="line"/>
      <point x="288" y="242" type="line"/>
      <point x="243" y="500" type="line"/>
      <point x="-8" y="500" type="line"/>
      <point x="135" y="128" type="line"/>
      <point x="198" y="-19" type="line"/>
      <point x="195" y="-27" type="line" smooth="yes"/>
      <point x="187" y="-47"/>
      <point x="169" y="-54"/>
      <point x="126" y="-54" type="curve" smooth="yes"/>
      <point x="78" y="-54"/>
      <point x="58" y="-49"/>
      <point x="37" y="-37" type="curve"/>
      <point x="-5" y="-182" type="line"/>
      <point x="32" y="-202"/>
      <point x="85" y="-215"/>
      <point x="149" y="-215" type="curve" smooth="yes"/>
      <point x="311" y="-215"/>
      <point x="391" y="-143"/>
      <point x="457" y="56" type="curve" smooth="yes"/>
      <point x="604" y="500" type="line"/>
    </contour>
  </outline>
</glyph>
<glyph name="asciitilde" format="2">
  <advance width="635"/>
  <unicode hex="007E"/>
  <outline>
    <contour>
      <point x="422" y="452" type="line"/>
      <point x="418" y="416"/>
      <point x="407" y="403"/>
      <point x="384" y="403" type="curve" smooth="yes"/>
      <point x="344" y="403"/>
      <point x="319" y="460"/>
      <point x="224" y="460" type="curve" smooth="yes"/>
      <point x="109" y="460"/>
      <point x="48" y="382"/>
      <point x="43" y="236" type="curve"/>
      <point x="213" y="236" type="line"/>
      <point x="217" y="272"/>
      <point x="228" y="285"/>
      <point x="251" y="285" type="curve" smooth="yes"/>
      <point x="291" y="285"/>
      <point x="316" y="228"/>
      <point x="411" y="228" type="curve" smooth="yes"/>
      <point x="526" y="228"/>
      <point x="587" y="306"/>
      <point x="592" y="452" type="curve"/>
    </contour>
  </outline>
</glyph>
<glyph name="copyright" format="2">
  <advance width="740"/>
  <unicode hex="00A9"/>
  <outline>
    <contour>
      <point x="161" y="670"/>
      <point x="24" y="535"/>
      <point x="24" y="330" type="curve" smooth="yes"/>
      <point x="24" y="125"/>
      <point x="161" y="-10"/>
      <point x="370" y="-10" type="curve" smooth="yes"/>
      <point x="579" y="-10"/>
      <point x="716" y="125"/>
      <point x="716" y="330" type="curve" smooth="yes"/>
      <point x="716" y="535"/>
      <point x="579" y="670"/>
      <point x="370" y="670" type="curve" smooth="yes"/>
    </contour>
    <contour>
      <point x="253" y="525"/>
      <point x="183" y="448"/>
      <point x="183" y="330" type="curve" smooth="yes"/>
      <point x="183" y="212"/>
      <point x="253" y="135"/>
      <point x="359" y="135" type="curve" smooth="yes"/>
      <point x="473" y="135"/>
      <point x="514" y="167"/>
      <point x="550" y="258" type="curve"/>
      <point x="435" y="318" type="line"/>
      <point x="424" y="290"/>
      <point x="408" y="288"/>
      <point x="378" y="288" type="curve" smooth="yes"/>
      <point x="349" y="288"/>
      <point x="337" y="302"/>
      <point x="337" y="330" type="curve" smooth="yes"/>
      <point x="337" y="358"/>
      <point x="349" y="372"/>
      <point x="377" y="372" type="curve" smooth="yes"/>
      <point x="410" y="372"/>
      <point x="422" y="367"/>
      <point x="434" y="345" type="curve"/>
      <point x="554" y="404" type="line"/>
      <point x="533" y="477"/>
      <point x="477" y="525"/>
      <point x="359" y="525" type="curve" smooth="yes"/>
    </contour>
    <contour>
      <point x="518" y="574"/>
      <point x="615" y="477"/>
      <point x="615" y="330" type="curve" smooth="yes"/>
      <point x="615" y="183"/>
      <point x="518" y="86"/>
      <point x="370" y="86" type="curve" smooth="yes"/>
      <point x="222" y="86"/>
      <point x="125" y="183"/>
      <point x="125" y="330" type="curve" smooth="yes"/>
      <point x="125" y="477"/>
      <point x="222" y="574"/>
      <point x="370" y="574" type="curve" smooth="yes"/>
    </contour>
  </outline>
</glyph>
<glyph name="logicalnot" format="2">
  <advance width="604"/>
  <unicode hex="00AC"/>
  <outline>
    <contour>
      <point x="369" y="310" type="line"/>
      <point x="369" y="75" type="line"/>
      <point x="544" y="75" type="line"/>
      <point x="544" y="310" type="line"/>
    </contour>
    <contour>
      <point x="60" y="407" type="line"/>
      <point x="60" y="254" type="line"/>
      <point x="544" y="254" type="line"/>
      <point x="544" y="407" type="line"/>
    </contour>
  </outline>
</glyph>
<glyph name="plusminus" format="2">
  <advance width="604"/>
  <unicode hex="00B1"/>
  <outline>
    <contour>
      <point x="225" y="660" type="line"/>
      <point x="225" y="206" type="line"/>
      <point x="380" y="206" type="line"/>
      <point x="380" y="660" type="line"/>
    </contour>
    <contour>
      <point x="45" y="506" type="line"/>
      <point x="45" y="360" type="line"/>
      <point x="559" y="360" type="line"/>
      <point x="559" y="506" type="line"/>
    </contour>
    <contour>
      <point x="45" y="141" type="line"/>
      <point x="45" y="1" type="line"/>
      <point x="559" y="1" type="line"/>
      <point x="559" y="141" type="line"/>
    </contour>
  </outline>
</glyph>
<glyph name="threesuperior" format="2">
  <advance width="391"/>
  <unicode hex="00B3"/>
  <anchor x="189" y="530" name="_indexring"/>
  <outline>
    <contour>
      <point x="97" y="735"/>
      <point x="18" y="701"/>
      <point x="7" y="616" type="curve"/>
      <point x="148" y="571" type="line"/>
      <point x="149" y="605"/>
      <point x="164" y="617"/>
      <point x="186" y="617" type="curve" smooth="yes"/>
      <point x="203" y="617"/>
      <point x="213" y="608"/>
      <point x="213" y="590" type="curve" smooth="yes"/>
      <point x="213" y="572"/>
      <point x="202" y="562"/>
      <point x="183" y="562" type="curve" smooth="yes"/>
      <point x="165" y="562" type="line"/>
      <point x="165" y="488" type="line"/>
      <point x="187" y="488" type="line" smooth="yes"/>
      <point x="209" y="488"/>
      <point x="218" y="481"/>
      <point x="218" y="465" type="curve" smooth="yes"/>
      <point x="218" y="448"/>
      <point x="208" y="437"/>
      <point x="187" y="437" type="curve" smooth="yes"/>
      <point x="163" y="437"/>
      <point x="145" y="448"/>
      <point x="146" y="482" type="curve"/>
      <point x="-1" y="431" type="line"/>
      <point x="26" y="353"/>
      <point x="95" y="327"/>
      <point x="202" y="327" type="curve" smooth="yes"/>
      <point x="311" y="327"/>
      <point x="373" y="374"/>
      <point x="373" y="449" type="curve" smooth="yes"/>
      <point x="373" y="498"/>
      <point x="346" y="528"/>
      <point x="279" y="528" type="curve"/>
      <point x="279" y="533" type="line"/>
      <point x="338" y="537"/>
      <point x="366" y="570"/>
      <point x="366" y="619" type="curve" smooth="yes"/>
      <point x="366" y="695"/>
      <point x="305" y="735"/>
      <point x="192" y="735" type="curve" smooth="yes"/>
    </contour>
  </outline>
</glyph>
<glyph name="uni00B5" format="2">
  <advance width="621"/>
  <unicode hex="00B5"/>
  <anchor x="314" y="-210" name="bottom"/>
  <anchor x="467" y="0" name="bottomC"/>
  <anchor x="582" y="0" name="ogonek"/>
  <anchor x="314" y="500" name="top"/>
  <outline>
    <contour>
      <point x="280" y="160"/>
      <point x="269" y="174"/>
      <point x="269" y="219" type="curve"/>
      <point x="99" y="162" type="line"/>
      <point x="99" y="40"/>
      <point x="146" y="-10"/>
      <point x="236" y="-10" type="curve" smooth="yes"/>
      <point x="333" y="-10"/>
      <point x="390" y="73"/>
      <point x="390" y="239" type="curve"/>
      <point x="352" y="239" type="line"/>
      <point x="352" y="185"/>
      <point x="337" y="160"/>
      <point x="306" y="160" type="curve" smooth="yes"/>
    </contour>
    <contour>
      <point x="39" y="500" type="line"/>
      <point x="39" y="-210" type="line"/>
      <point x="269" y="-210" type="line"/>
      <point x="269" y="500" type="line"/>
    </contour>
    <contour>
      <point x="352" y="500" type="line"/>
      <point x="352" y="219" type="line"/>
      <point x="367" y="162" type="line"/>
      <point x="375" y="0" type="line"/>
      <point x="582" y="0" type="line"/>
      <point x="582" y="152" type="line"/>
      <point x="582" y="500" type="line"/>
    </contour>
  </outline>
</glyph>
<glyph name="ordmasculine" format="2">
  <advance width="464"/>
  <unicode hex="00BA"/>
  <outline>
    <contour>
      <point x="354" y="292"/>
      <point x="430" y="360"/>
      <point x="430" y="476" type="curve" smooth="yes"/>
      <point x="430" y="592"/>
      <point x="354" y="660"/>
      <point x="232" y="660" type="curve" smooth="yes"/>
      <point x="110" y="660"/>
      <point x="34" y="592"/>
      <point x="34" y="476" type="curve" smooth="yes"/>
      <point x="34" y="360"/>
      <point x="110" y="292"/>
      <point x="232" y="292" type="curve" smooth="yes"/>
    </contour>
    <contour>
      <point x="428" y="117" type="line"/>
      <point x="428" y="230" type="line"/>
      <point x="36" y="230" type="line"/>
      <point x="36" y="117" type="line"/>
    </contour>
    <contour>
      <point x="207" y="392"/>
      <point x="198" y="413"/>
      <point x="198" y="476" type="curve" smooth="yes"/>
      <point x="198" y="539"/>
      <point x="207" y="560"/>
      <point x="232" y="560" type="curve" smooth="yes"/>
      <point x="258" y="560"/>
      <point x="266" y="539"/>
      <point x="266" y="476" type="curve" smooth="yes"/>
      <point x="266" y="413"/>
      <point x="258" y="392"/>
      <point x="232" y="392" type="curve" smooth="yes"/>
    </contour>
  </outline>
</glyph>
<glyph name="multiply" format="2">
  <advance width="604"/>
  <unicode hex="00D7"/>
  <outline>
    <contour>
      <point x="36" y="184" type="line"/>
      <point x="450" y="598" type="line"/>
      <point x="568" y="480" type="line"/>
      <point x="154" y="66" type="line"/>
    </contour>
    <contour>
      <point x="36" y="480" type="line"/>
      <point x="154" y="598" type="line"/>
      <point x="568" y="184" type="line"/>
      <point x="450" y="66" type="line"/>
    </contour>
  </outline>
</glyph>
<glyph name="Thorn" format="2">
  <advance width="692"/>
  <unicode hex="00DE"/>
  <anchor x="167" y="0" name="bottom"/>
  <anchor x="167" y="0" name="bottomC"/>
  <anchor x="283" y="0" name="ogonek"/>
  <anchor x="167" y="660" name="top"/>
  <outline>
    <contour>
      <point x="166" y="571" type="line"/>
      <point x="166" y="406" type="line"/>
      <point x="354" y="406" type="line" smooth="yes"/>
      <point x="402" y="406"/>
      <point x="431" y="385"/>
      <point x="430" y="337" type="curve" smooth="yes"/>
      <point x="431" y="288"/>
      <point x="402" y="267"/>
      <point x="354" y="267" type="curve" smooth="yes"/>
      <point x="166" y="267" type="line"/>
      <point x="166" y="103" type="line"/>
      <point x="392" y="103" type="line" smooth="yes"/>
      <point x="563" y="103"/>
      <point x="664" y="182"/>
      <point x="663" y="337" type="curve" smooth="yes"/>
      <point x="664" y="492"/>
      <point x="563" y="571"/>
      <point x="392" y="571" type="curve" smooth="yes"/>
    </contour>
    <contour>
      <point x="50" y="660" type="line"/>
      <point x="50" y="0" type="line"/>
      <point x="283" y="0" type="line"/>
      <point x="283" y="660" type="line"/>
    </contour>
  </outline>
</glyph>
<glyph name="Imacron" format="2">
  <advance width="333"/>
  <unicode hex="012A"/>
  <anchor x="167" y="0" name="bottomC"/>
  <anchor x="166" y="660" name="top"/>
  <anchor x="283" y="0" name="ogonek"/>
  <anchor x="167" y="0" name="bottom"/>
  <outline>
    <contour>
      <point x="1" y="841" type="line"/>
      <point x="1" y="711" type="line"/>
      <point x="330" y="711" type="line"/>
      <point x="330" y="841" type="line"/>
    </contour>
    <component base="I"/>
  </outline>
</glyph>
<glyph name="idotless" format="2">
  <advance width="308"/>
  <unicode hex="0131"/>
  <anchor x="154" y="0" name="bottom"/>
  <anchor x="154" y="0" name="bottomC"/>
  <anchor x="250" y="10" name="ogonek"/>
  <anchor x="154" y="500" name="top"/>
  <outline>
    <contour>
      <point x="39" y="500" type="line"/>
      <point x="39" y="0" type="line"/>
      <point x="269" y="0" type="line"/>
      <point x="269" y="500" type="line"/>
    </contour>
  </outline>
</glyph>
<glyph name="OE" format="2">
  <advance width="1027"/>
  <unicode hex="0152"/>
  <anchor x="565" y="0" name="bottom"/>
  <anchor x="639" y="0" name="bottomC"/>
  <anchor x="1011" y="0" name="ogonek"/>
  <anchor x="565" y="660" name="top"/>
  <outline>
    <contour>
      <point x="152" y="670"/>
      <point x="29" y="546"/>
      <point x="29" y="330" type="curve" smooth="yes"/>
      <point x="29" y="114"/>
      <point x="152" y="-10"/>
      <point x="342" y="-10" type="curve" smooth="yes"/>
      <point x="550" y="-10"/>
      <point x="642" y="162"/>
      <point x="642" y="330" type="curve" smooth="yes"/>
      <point x="642" y="498"/>
      <point x="550" y="670"/>
      <point x="342" y="670" type="curve" smooth="yes"/>
    </contour>
    <contour>
      <point x="423" y="495"/>
      <point x="452" y="445"/>
      <point x="452" y="330" type="curve" smooth="yes"/>
      <point x="452" y="215"/>
      <point x="423" y="165"/>
      <point x="355" y="165" type="curve" smooth="yes"/>
      <point x="291" y="165"/>
      <point x="262" y="215"/>
      <point x="262" y="330" type="curve" smooth="yes"/>
      <point x="262" y="445"/>
      <point x="291" y="495"/>
      <point x="355" y="495" type="curve" smooth="yes"/>
    </contour>
    <contour>
      <point x="565" y="171" type="line"/>
      <point x="565" y="0" type="line"/>
      <point x="1011" y="0" type="line"/>
      <point x="1011" y="171" type="line"/>
    </contour>
    <contour>
      <point x="542" y="660" type="line"/>
      <point x="542" y="0" type="line"/>
      <point x="685" y="0" type="line"/>
      <point x="685" y="660" type="line"/>
    </contour>
    <contour>
      <point x="565" y="407" type="line"/>
      <point x="565" y="249" type="line"/>
      <point x="938" y="249" type="line"/>
      <point x="938" y="407" type="line"/>
    </contour>
    <contour>
      <point x="565" y="660" type="line"/>
      <point x="565" y="489" type="line"/>
      <point x="999" y="489" type="line"/>
      <point x="999" y="660" type="line"/>
    </contour>
  </outline>
</glyph>
<glyph name="uni0163" format="2">
  <advance width="445"/>
  <unicode hex="0163"/>
  <anchor x="251" y="-210" name="bottom"/>
  <anchor x="264" y="-210" name="bottomC"/>
  <anchor x="156" y="250" name="center"/>
  <anchor x="283" y="-210" name="ogonek"/>
  <anchor x="193" y="730" name="top"/>
  <anchor x="367" y="767" name="topright"/>
  <outline>
    <contour>
      <point x="252" y="-8"/>
      <point x="275" y="-25"/>
      <point x="275" y="-59" type="curve" smooth="yes"/>
      <point x="275" y="-89"/>
      <point x="254" y="-104"/>
      <point x="217" y="-104" type="curve" smooth="yes"/>
      <point x="186" y="-104"/>
      <point x="163" y="-92"/>
      <point x="148" y="-76" type="curve"/>
      <point x="102" y="-172" type="line"/>
      <point x="126" y="-195"/>
      <point x="163" y="-215"/>
      <point x="236" y="-215" type="curve" smooth="yes"/>
      <point x="324" y="-215"/>
      <point x="397" y="-184"/>
      <point x="397" y="-90" type="curve" smooth="yes"/>
      <point x="397" y="-19"/>
      <point x="330" y="25"/>
      <point x="211" y="52" type="curve"/>
      <point x="179" y="5" type="line"/>
    </contour>
    <component base="t"/>
  </outline>
</glyph>
<glyph name="dotaccent" format="2">
  <advance width="500"/>
  <unicode hex="02D9"/>
  <anchor x="250" y="500" name="_top"/>
  <outline>
    <contour>
      <point x="175" y="726"/>
      <point x="138" y="695"/>
      <point x="138" y="632" type="curve" smooth="yes"/>
      <point x="138" y="569"/>
      <point x="175" y="538"/>
      <point x="250" y="538" type="curve" smooth="yes"/>
      <point x="327" y="538"/>
      <point x="365" y="569"/>
      <point x="365" y="632" type="curve" smooth="yes"/>
      <point x="365" y="695"/>
      <point x="327" y="726"/>
      <point x="250" y="726" type="curve" smooth="yes"/>
    </contour>
  </outline>
</glyph>
<glyph name="tilde" format="2">
  <advance width="500"/>
  <unicode hex="02DC"/>
  <anchor x="250" y="500" name="_top"/>
  <outline>
    <contour>
      <point x="342" y="719" type="line"/>
      <point x="339" y="685"/>
      <point x="330" y="671"/>
      <point x="312" y="671" type="curve" smooth="yes"/>
      <point x="275" y="671"/>
      <point x="265" y="721"/>
      <point x="186" y="721" type="curve" smooth="yes"/>
      <point x="95" y="721"/>
      <point x="43" y="665"/>
      <point x="40" y="545" type="curve"/>
      <point x="158" y="545" type="line"/>
      <point x="161" y="579"/>
      <point x="171" y="593"/>
      <point x="188" y="593" type="curve" smooth="yes"/>
      <point x="225" y="593"/>
      <point x="235" y="543"/>
      <point x="314" y="543" type="curve" smooth="yes"/>
      <point x="405" y="543"/>
      <point x="457" y="599"/>
      <point x="460" y="719" type="curve"/>
    </contour>
  </outline>
</glyph>
<glyph name="commaaccent" format="2">
  <advance width="500"/>
  <unicode hex="0326"/>
  <anchor x="0" y="0" name="_bottom"/>
  <outline>
    <contour>
      <point x="-83" y="-50" type="line"/>
      <point x="-107" y="-243" type="line"/>
      <point x="35" y="-243" type="line"/>
      <point x="110" y="-50" type="line"/>
    </contour>
  </outline>
</glyph>
<glyph name="dagger" format="2">
  <advance width="650"/>
  <unicode hex="2020"/>
  <outline>
    <contour>
      <point x="219" y="660" type="line"/>
      <point x="219" y="-100" type="line"/>
      <point x="429" y="-100" type="line"/>
      <point x="429" y="660" type="line"/>
    </contour>
    <contour>
      <point x="31" y="470" type="line"/>
      <point x="31" y="299" type="line"/>
      <point x="619" y="299" type="line"/>
      <point x="619" y="470" type="line"/>
    </contour>
  </outline>
</glyph>
<glyph name="guilsinglleft" format="2">
  <advance width="361"/>
  <unicode hex="2039"/>
  <outline>
    <contour>
      <point x="149" y="461" type="line"/>
      <point x="24" y="265" type="line"/>
      <point x="149" y="69" type="line"/>
      <point x="337" y="69" type="line"/>
      <point x="221" y="265" type="line"/>
      <point x="337" y="461" type="line"/>
    </contour>
  </outline>
</glyph>
<glyph name="foursuperior" format="2">
  <advance width="420"/>
  <unicode hex="2074"/>
  <anchor x="232" y="527" name="_indexring"/>
  <outline>
    <contour>
      <point x="354" y="511" type="line"/>
      <point x="354" y="731" type="line"/>
      <point x="160" y="731" type="line"/>
      <point x="12" y="478" type="line"/>
      <point x="12" y="408" type="line"/>
      <point x="214" y="408" type="line"/>
      <point x="214" y="333" type="line"/>
      <point x="354" y="333" type="line"/>
      <point x="354" y="408" type="line"/>
      <point x="407" y="408" type="line"/>
      <point x="407" y="511" type="line"/>
    </contour>
    <contour>
      <point x="185" y="584" type="line" smooth="yes"/>
      <point x="195" y="602"/>
      <point x="207" y="627"/>
      <point x="214" y="647" type="curve"/>
      <point x="217" y="647" type="line"/>
      <point x="216" y="623"/>
      <point x="214" y="592"/>
      <point x="214" y="564" type="curve" smooth="yes"/>
      <point x="214" y="511" type="line"/>
      <point x="144" y="511" type="line"/>
    </contour>
  </outline>
</glyph>
<glyph name="plussuperior" format="2">
  <advance width="361"/>
  <unicode hex="207A"/>
  <outline>
    <contour>
      <point x="340" y="478" type="line"/>
      <point x="340" y="588" type="line"/>
      <point x="21" y="588" type="line"/>
      <point x="21" y="478" type="line"/>
    </contour>
    <contour>
      <point x="238" y="373" type="line"/>
      <point x="238" y="693" type="line"/>
      <point x="124" y="693" type="line"/>
      <point x="124" y="373" type="line"/>
    </contour>
  </outline>
</glyph>
<glyph name="equalsuperior" format="2">
  <advance width="421"/>
  <unicode hex="207C"/>
  <outline>
    <contour>
      <point x="365" y="393" type="line"/>
      <point x="365" y="506" type="line"/>
      <point x="56" y="506" type="line"/>
      <point x="56" y="393" type="line"/>
    </contour>
    <contour>
      <point x="365" y="566" type="line"/>
      <point x="365" y="679" type="line"/>
      <point x="56" y="679" type="line"/>
      <point x="56" y="566" type="line"/>
    </contour>
  </outline>
</glyph>
<glyph name="parenleftsuperior" format="2">
  <advance width="277"/>
  <unicode hex="207D"/>
  <outline>
    <contour>
      <point x="100" y="750"/>
      <point x="51" y="661"/>
      <point x="51" y="531" type="curve" smooth="yes"/>
      <point x="51" y="401"/>
      <point x="100" y="312"/>
      <point x="194" y="254" type="curve"/>
      <point x="275" y="323" type="line"/>
      <point x="219" y="373"/>
      <point x="198" y="425"/>
      <point x="198" y="531" type="curve" smooth="yes"/>
      <point x="198" y="637"/>
      <point x="219" y="689"/>
      <point x="275" y="739" type="curve"/>
      <point x="194" y="808" type="line"/>
    </contour>
  </outline>
</glyph>
<glyph name="trademark" format="2">
  <advance width="822"/>
  <unicode hex="2122"/>
  <outline>
    <contour>
      <point x="103" y="660" type="line"/>
      <point x="103" y="330" type="line"/>
      <point x="223" y="330" type="line"/>
      <point x="223" y="660" type="line"/>
    </contour>
    <contour>
      <point x="0" y="660" type="line"/>
      <point x="0" y="573" type="line"/>
      <point x="326" y="573" type="line"/>
      <point x="326" y="660" type="line"/>
    </contour>
    <contour>
      <point x="637" y="660" type="line"/>
      <point x="600" y="529" type="line"/>
      <point x="587" y="465" type="line"/>
      <point x="584" y="465" type="line"/>
      <point x="571" y="529" type="line"/>
      <point x="535" y="660" type="line"/>
      <point x="355" y="660" type="line"/>
      <point x="355" y="330" type="line"/>
      <point x="474" y="330" type="line"/>
      <point x="474" y="441" type="line"/>
      <point x="470" y="553" type="line"/>
      <point x="473" y="553" type="line"/>
      <point x="499" y="456" type="line"/>
      <point x="534" y="330" type="line"/>
      <point x="634" y="330" type="line"/>
      <point x="669" y="455" type="line"/>
      <point x="695" y="553" type="line"/>
      <point x="698" y="553" type="line"/>
      <point x="694" y="441" type="line"/>
      <point x="694" y="330" type="line"/>
      <point x="812" y="330" type="line"/>
      <point x="812" y="660" type="line"/>
    </contour>
  </outline>
</glyph>
<glyph name="summation" format="2">
  <advance width="697"/>
  <unicode hex="2211"/>
  <outline>
    <contour>
      <point x="284" y="266" type="line"/>
      <point x="55" y="23" type="line"/>
      <point x="269" y="2" type="line"/>
      <point x="505" y="245" type="line"/>
      <point x="505" y="266" type="line"/>
    </contour>
    <contour>
      <point x="55" y="23" type="line"/>
      <point x="55" y="-128" type="line"/>
      <point x="643" y="-128" type="line"/>
      <point x="643" y="23" type="line"/>
    </contour>
    <contour>
      <point x="55" y="499" type="line"/>
      <point x="284" y="266" type="line"/>
      <point x="505" y="266" type="line"/>
      <point x="505" y="286" type="line"/>
      <point x="269" y="521" type="line"/>
    </contour>
    <contour>
      <point x="55" y="660" type="line"/>
      <point x="55" y="499" type="line"/>
      <point x="643" y="499" type="line"/>
      <point x="643" y="660" type="line"/>
    </contour>
  </outline>
</glyph>
<glyph name="lessequal" format="2">
  <advance width="604"/>
  <unicode hex="2264"/>
  <outline>
    <contour>
      <point x="56" y="553" type="line"/>
      <point x="56" y="409" type="line"/>
      <point x="550" y="488" type="line"/>
      <point x="550" y="669" type="line"/>
    </contour>
    <contour>
      <point x="56" y="0" type="line"/>
      <point x="550" y="0" type="line"/>
      <point x="550" y="155" type="line"/>
      <point x="56" y="155" type="line"/>
    </contour>
    <contour>
      <point x="56" y="446" type="line"/>
      <point x="56" y="302" type="line"/>
      <point x="550" y="186" type="line"/>
      <point x="550" y="367" type="line"/>
    </contour>
  </outline>
</glyph>
<glyph name="A.swsh" format="2">
  <advance width="919"/>
  <anchor x="574" y="0" name="bottom"/>
  <anchor x="929" y="0" name="ogonek"/>
  <anchor x="574" y="660" name="top"/>
  <outline>
    <contour>
      <point x="349" y="-110"/>
      <point x="427" y="-34"/>
      <point x="466" y="103" type="curve" smooth="yes"/>
      <point x="545" y="379" type="line"/>
      <point x="571" y="491" type="line"/>
      <point x="574" y="491" type="line"/>
      <point x="601" y="379" type="line"/>
      <point x="691" y="0" type="line"/>
      <point x="929" y="0" type="line"/>
      <point x="714" y="660" type="line"/>
      <point x="434" y="660" type="line"/>
      <point x="279" y="181" type="line" smooth="yes"/>
      <point x="252" y="96"/>
      <point x="217" y="56"/>
      <point x="160" y="56" type="curve" smooth="yes"/>
      <point x="116" y="56"/>
      <point x="86" y="69"/>
      <point x="54" y="107" type="curve"/>
      <point x="-1" y="-47" type="line"/>
      <point x="29" y="-93"/>
      <point x="96" y="-110"/>
      <point x="176" y="-110" type="curve" smooth="yes"/>
    </contour>
    <contour>
      <point x="764" y="126" type="line"/>
      <point x="764" y="271" type="line"/>
      <point x="387" y="271" type="line"/>
      <point x="387" y="126" type="line"/>
    </contour>
    <component base="__swash_topleft" xOffset="10"/>
  </outline>
</glyph>
<glyph name="E.swsh.001" format="2">
  <advance width="887"/>
  <anchor x="329" y="0" name="bottom"/>
  <anchor x="329" y="0" name="bottomC"/>
  <anchor x="630" y="0" name="ogonek"/>
  <anchor x="313" y="660" name="top"/>
  <outline>
    <contour>
      <point x="607" y="268" type="line"/>
      <point x="664" y="261"/>
      <point x="683" y="241"/>
      <point x="683" y="215" type="curve" smooth="yes"/>
      <point x="683" y="185"/>
      <point x="664" y="171"/>
      <point x="620" y="171" type="curve" smooth="yes"/>
      <point x="470" y="171" type="line"/>
      <point x="470" y="0" type="line"/>
      <point x="650" y="0" type="line" smooth="yes"/>
      <point x="788" y="0"/>
      <point x="877" y="55"/>
      <point x="877" y="207" type="curve" smooth="yes"/>
      <point x="877" y="305"/>
      <point x="821" y="379"/>
      <point x="680" y="402" type="curve"/>
    </contour>
    <contour>
      <point x="50" y="0" type="line"/>
      <point x="283" y="0" type="line"/>
      <point x="283" y="660" type="line"/>
      <point x="50" y="660" type="line"/>
    </contour>
    <contour>
      <point x="162" y="249" type="line"/>
      <point x="477" y="249" type="line"/>
      <point x="477" y="407" type="line"/>
      <point x="162" y="407" type="line"/>
    </contour>
    <contour>
      <point x="162" y="489" type="line"/>
      <point x="640" y="489" type="line"/>
      <point x="640" y="660" type="line"/>
      <point x="162" y="660" type="line"/>
    </contour>
    <contour>
      <point x="162" y="0" type="line"/>
      <point x="568" y="0" type="line"/>
      <point x="568" y="171" type="line"/>
      <point x="162" y="171" type="line"/>
    </contour>
  </outline>
</glyph>
<glyph name="Euro.tf" format="2">
  <advance width="604"/>
  <outline>
    <contour>
      <point x="10" y="292" type="line"/>
      <point x="10" y="206" type="line"/>
      <point x="355" y="206" type="line"/>
      <point x="373" y="292" type="line"/>
    </contour>
    <contour>
      <point x="10" y="422" type="line"/>
      <point x="10" y="336" type="line"/>
      <point x="383" y="336" type="line"/>
      <point x="401" y="422" type="line"/>
    </contour>
    <component base="euro.part.tf" xOffset="-10"/>
  </outline>
</glyph>
<glyph name="Hsuperior" format="2">
  <advance width="496"/>
  <outline>
    <contour>
      <point x="306" y="730" type="line"/>
      <point x="306" y="333" type="line"/>
      <point x="464" y="333" type="line"/>
      <point x="464" y="730" type="line"/>
    </contour>
    <contour>
      <point x="32" y="730" type="line"/>
      <point x="32" y="333" type="line"/>
      <point x="190" y="333" type="line"/>
      <point x="190" y="730" type="line"/>
    </contour>
    <contour>
      <point x="104" y="592" type="line"/>
      <point x="104" y="478" type="line"/>
      <point x="389" y="478" type="line"/>
      <point x="389" y="592" type="line"/>
    </contour>
  </outline>
</glyph>
<glyph name="IJ.ss05" format="2">
  <advance width="682"/>
  <outline>
    <contour>
      <point x="50" y="660" type="line"/>
      <point x="50" y="292" type="line"/>
      <point x="283" y="292" type="line"/>
      <point x="283" y="660" type="line"/>
    </contour>
    <contour>
      <point x="414" y="660" type="line"/>
      <point x="414" y="265" type="line" smooth="yes"/>
      <point x="414" y="193"/>
      <point x="394" y="165"/>
      <point x="348" y="165" type="curve" smooth="yes"/>
      <point x="297" y="165"/>
      <point x="278" y="191"/>
      <point x="284" y="248" type="curve"/>
      <point x="50" y="248" type="line"/>
      <point x="29" y="75"/>
      <point x="144" y="-10"/>
      <point x="341" y="-10" type="curve" smooth="yes"/>
      <point x="531" y="-10"/>
      <point x="647" y="95"/>
      <point x="647" y="272" type="curve" smooth="yes"/>
      <point x="647" y="660" type="line"/>
    </contour>
  </outline>
</glyph>
<glyph name="N.swsh" format="2">
  <advance width="746"/>
  <anchor x="374" y="0" name="bottom"/>
  <anchor x="530" y="0" name="bottomC"/>
  <anchor x="696" y="0" name="ogonek"/>
  <anchor x="373" y="660" name="top"/>
  <outline>
    <contour>
      <point x="252" y="0" type="line"/>
      <point x="252" y="245" type="line"/>
      <point x="248" y="381" type="line"/>
      <point x="250" y="381" type="line"/>
      <point x="286" y="300" type="line"/>
      <point x="444" y="0" type="line"/>
      <point x="696" y="0" type="line"/>
      <point x="696" y="400" type="line"/>
      <point x="494" y="440" type="line"/>
      <point x="494" y="415" type="line"/>
      <point x="498" y="279" type="line"/>
      <point x="496" y="279" type="line"/>
      <point x="460" y="359" type="line"/>
      <point x="302" y="660" type="line"/>
      <point x="50" y="660" type="line"/>
      <point x="50" y="0" type="line"/>
    </contour>
    <contour>
      <point x="696" y="359" type="line"/>
      <point x="696" y="455" type="line" smooth="yes"/>
      <point x="696" y="521"/>
      <point x="729" y="554"/>
      <point x="785" y="554" type="curve" smooth="yes"/>
      <point x="835" y="554"/>
      <point x="860" y="539"/>
      <point x="887" y="506" type="curve"/>
      <point x="957" y="647" type="line"/>
      <point x="910" y="696"/>
      <point x="851" y="720"/>
      <point x="752" y="720" type="curve" smooth="yes"/>
      <point x="600" y="720"/>
      <point x="494" y="656"/>
      <point x="494" y="471" type="curve" smooth="yes"/>
      <point x="494" y="431" type="line"/>
    </contour>
  </outline>
</glyph>
<glyph name="Odieresis.titl" format="2">
  <advance width="729"/>
  <outline>
    <contour>
      <point x="121" y="670"/>
      <point x="95" y="646"/>
      <point x="95" y="606" type="curve" smooth="yes"/>
      <point x="95" y="568"/>
      <point x="121" y="544"/>
      <point x="165" y="544" type="curve" smooth="yes"/>
      <point x="211" y="544"/>
      <point x="238" y="568"/>
      <point x="238" y="606" type="curve" smooth="yes"/>
      <point x="238" y="646"/>
      <point x="211" y="670"/>
      <point x="165" y="670" type="curve" smooth="yes"/>
    </contour>
    <contour>
      <point x="521" y="670"/>
      <point x="495" y="647"/>
      <point x="495" y="608" type="curve" smooth="yes"/>
      <point x="495" y="568"/>
      <point x="521" y="544"/>
      <point x="565" y="545" type="curve" smooth="yes"/>
      <point x="611" y="544"/>
      <point x="638" y="568"/>
      <point x="638" y="608" type="curve" smooth="yes"/>
      <point x="638" y="647"/>
      <point x="611" y="670"/>
      <point x="565" y="670" type="curve" smooth="yes"/>
    </contour>
    <contour>
      <point x="156" y="670"/>
      <point x="29" y="546"/>
      <point x="29" y="330" type="curve" smooth="yes"/>
      <point x="29" y="114"/>
      <point x="156" y="-10"/>
      <point x="365" y="-10" type="curve" smooth="yes"/>
      <point x="575" y="-10"/>
      <point x="700" y="114"/>
      <point x="700" y="330" type="curve" smooth="yes"/>
      <point x="700" y="546"/>
      <point x="575" y="670"/>
      <point x="365" y="670" type="curve" smooth="yes"/>
    </contour>
    <contour>
      <point x="433" y="495"/>
      <point x="462" y="445"/>
      <point x="462" y="330" type="curve" smooth="yes"/>
      <point x="462" y="215"/>
      <point x="433" y="165"/>
      <point x="365" y="165" type="curve" smooth="yes"/>
      <point x="297" y="165"/>
      <point x="267" y="215"/>
      <point x="267" y="330" type="curve" smooth="yes"/>
      <point x="267" y="445"/>
      <point x="297" y="495"/>
      <point x="365" y="495" type="curve" smooth="yes"/>
    </contour>
  </outline>
</glyph>
<glyph name="S.swsh" format="2">
  <advance width="646"/>
  <anchor x="304" y="-100" name="bottom"/>
  <anchor x="296" y="-100" name="bottomC"/>
  <anchor x="409" y="-100" name="ogonek"/>
  <anchor x="331" y="660" name="top"/>
  <outline>
    <contour>
      <point x="496" y="-110"/>
      <point x="629" y="-31"/>
      <point x="629" y="127" type="curve" smooth="yes"/>
      <point x="629" y="253"/>
      <point x="565" y="316"/>
      <point x="396" y="350" type="curve" smooth="yes"/>
      <point x="299" y="370"/>
      <point x="267" y="391"/>
      <point x="267" y="431" type="curve" smooth="yes"/>
      <point x="267" y="470"/>
      <point x="290" y="495"/>
      <point x="331" y="495" type="curve" smooth="yes"/>
      <point x="392" y="495"/>
      <point x="416" y="446"/>
      <point x="413" y="386" type="curve"/>
      <point x="619" y="464" type="line"/>
      <point x="617" y="613"/>
      <point x="527" y="670"/>
      <point x="337" y="670" type="curve" smooth="yes"/>
      <point x="138" y="670"/>
      <point x="28" y="568"/>
      <point x="28" y="433" type="curve" smooth="yes"/>
      <point x="28" y="292"/>
      <point x="101" y="222"/>
      <point x="284" y="191" type="curve" smooth="yes"/>
      <point x="385" y="174"/>
      <point x="414" y="153"/>
      <point x="414" y="115" type="curve" smooth="yes"/>
      <point x="414" y="87"/>
      <point x="390" y="65"/>
      <point x="325" y="65" type="curve" smooth="yes"/>
      <point x="250" y="65"/>
      <point x="221" y="89"/>
      <point x="221" y="133" type="curve" smooth="yes"/>
      <point x="221" y="146"/>
      <point x="223" y="157"/>
      <point x="227" y="174" type="curve"/>
      <point x="25" y="121" type="line"/>
      <point x="22" y="109"/>
      <point x="19" y="91"/>
      <point x="19" y="62" type="curve" smooth="yes"/>
      <point x="19" y="-37"/>
      <point x="133" y="-110"/>
      <point x="304" y="-110" type="curve" smooth="yes"/>
    </contour>
  </outline>
</glyph>
<glyph name="Ydieresis.titl" format="2">
  <advance width="713"/>
  <outline>
    <contour>
      <point x="540" y="698"/>
      <point x="578" y="731"/>
      <point x="578" y="789" type="curve" smooth="yes"/>
      <point x="578" y="847"/>
      <point x="540" y="880"/>
      <point x="473" y="880" type="curve" smooth="yes"/>
      <point x="408" y="880"/>
      <point x="371" y="847"/>
      <point x="371" y="789" type="curve" smooth="yes"/>
      <point x="371" y="731"/>
      <point x="408" y="698"/>
      <point x="473" y="698" type="curve" smooth="yes"/>
    </contour>
    <contour>
      <point x="303" y="698"/>
      <point x="341" y="731"/>
      <point x="341" y="789" type="curve" smooth="yes"/>
      <point x="341" y="847"/>
      <point x="303" y="880"/>
      <point x="236" y="880" type="curve" smooth="yes"/>
      <point x="171" y="880"/>
      <point x="134" y="847"/>
      <point x="134" y="789" type="curve" smooth="yes"/>
      <point x="134" y="731"/>
      <point x="171" y="698"/>
      <point x="236" y="698" type="curve" smooth="yes"/>
    </contour>
    <contour>
      <point x="475" y="660" type="line"/>
      <point x="405" y="509" type="line"/>
      <point x="358" y="389" type="line"/>
      <point x="311" y="509" type="line"/>
      <point x="241" y="660" type="line"/>
      <point x="9" y="660" type="line"/>
      <point x="240" y="229" type="line"/>
      <point x="240" y="0" type="line"/>
      <point x="473" y="0" type="line"/>
      <point x="473" y="229" type="line"/>
      <point x="704.006" y="660" type="line"/>
    </contour>
  </outline>
</glyph>
<glyph name="a.sc" format="2">
  <advance width="652"/>
  <anchor x="326" y="0" name="bottom"/>
  <anchor x="556" y="0" name="bottomC"/>
  <anchor x="656" y="0" name="ogonek"/>
  <anchor x="326" y="560" name="top"/>
  <outline>
    <contour>
      <point x="209" y="0" type="line"/>
      <point x="251" y="165" type="line"/>
      <point x="318" y="401" type="line"/>
      <point x="323" y="401" type="line"/>
      <point x="391" y="165" type="line"/>
      <point x="431" y="0" type="line"/>
      <point x="656" y="0" type="line"/>
      <point x="464" y="560" type="line"/>
      <point x="188" y="560" type="line"/>
      <point x="-4" y="0" type="line"/>
    </contour>
    <contour>
      <point x="499" y="92" type="line"/>
      <point x="499" y="235" type="line"/>
      <point x="152" y="235" type="line"/>
      <point x="152" y="92" type="line"/>
    </contour>
  </outline>
</glyph>
<glyph name="aogonek_j" format="2">
  <advance width="894"/>
  <outline>
    <contour>
      <point x="115" y="510"/>
      <point x="32" y="441"/>
      <point x="22" y="329" type="curve"/>
      <point x="212" y="300" type="line"/>
      <point x="214" y="349"/>
      <point x="237" y="361"/>
      <point x="265" y="361" type="curve" smooth="yes"/>
      <point x="294" y="361"/>
      <point x="310" y="343"/>
      <point x="310" y="312" type="curve" smooth="yes"/>
      <point x="310" y="112" type="line"/>
      <point x="356" y="126" type="line"/>
      <point x="356" y="56"/>
      <point x="401" y="9"/>
      <point x="505" y="9" type="curve" smooth="yes"/>
      <point x="530" y="9"/>
      <point x="538" y="11"/>
      <point x="579" y="5" type="curve"/>
      <point x="597" y="127" type="line"/>
      <point x="591" y="124"/>
      <point x="583" y="123"/>
      <point x="572" y="123" type="curve" smooth="yes"/>
      <point x="550" y="123"/>
      <point x="538" y="136"/>
      <point x="538" y="164" type="curve" smooth="yes"/>
      <point x="538" y="304" type="line" smooth="yes"/>
      <point x="538" y="441"/>
      <point x="457" y="510"/>
      <point x="278" y="510" type="curve" smooth="yes"/>
    </contour>
    <contour>
      <point x="211" y="270" type="line" smooth="yes"/>
      <point x="69" y="239"/>
      <point x="16" y="192"/>
      <point x="16" y="109" type="curve" smooth="yes"/>
      <point x="16" y="33"/>
      <point x="65" y="-10"/>
      <point x="170" y="-10" type="curve" smooth="yes"/>
      <point x="312" y="-10"/>
      <point x="372" y="74"/>
      <point x="372" y="164" type="curve"/>
      <point x="310" y="164" type="line"/>
      <point x="310" y="131"/>
      <point x="291" y="115"/>
      <point x="267" y="115" type="curve" smooth="yes"/>
      <point x="248" y="115"/>
      <point x="232" y="126"/>
      <point x="232" y="150" type="curve" smooth="yes"/>
      <point x="232" y="175"/>
      <point x="249" y="194"/>
      <point x="277" y="202" type="curve" smooth="yes"/>
      <point x="360" y="226" type="line"/>
      <point x="342" y="299" type="line"/>
    </contour>
    <contour>
      <point x="387" y="26"/>
      <point x="314" y="-27"/>
      <point x="314" y="-116" type="curve" smooth="yes"/>
      <point x="314" y="-171"/>
      <point x="353" y="-215"/>
      <point x="429" y="-215" type="curve" smooth="yes"/>
      <point x="467" y="-215"/>
      <point x="492" y="-209"/>
      <point x="511" y="-197" type="curve"/>
      <point x="533" y="-87" type="line"/>
      <point x="523" y="-92"/>
      <point x="513.167" y="-94"/>
      <point x="499" y="-94" type="curve" smooth="yes"/>
      <point x="478" y="-94"/>
      <point x="466" y="-79"/>
      <point x="466" y="-60" type="curve" smooth="yes"/>
      <point x="466" y="-29"/>
      <point x="494.416" y="7.283"/>
      <point x="579" y="5" type="curve"/>
      <point x="489" y="32" type="line"/>
    </contour>
    <contour>
      <point x="627" y="500" type="line"/>
      <point x="627" y="-18" type="line" smooth="yes"/>
      <point x="627" y="-51"/>
      <point x="618" y="-60"/>
      <point x="605" y="-60" type="curve" smooth="yes"/>
      <point x="595" y="-60"/>
      <point x="586" y="-58"/>
      <point x="581" y="-52" type="curve"/>
      <point x="552" y="-201" type="line"/>
      <point x="580" y="-212"/>
      <point x="599" y="-215"/>
      <point x="631" y="-215" type="curve" smooth="yes"/>
      <point x="744" y="-215"/>
      <point x="857" y="-187"/>
      <point x="857" y="-23" type="curve" smooth="yes"/>
      <point x="857" y="500" type="line"/>
    </contour>
    <contour>
      <point x="650" y="724"/>
      <point x="617" y="698"/>
      <point x="617" y="628" type="curve" smooth="yes"/>
      <point x="617" y="558"/>
      <point x="650" y="532"/>
      <point x="741" y="532" type="curve" smooth="yes"/>
      <point x="834" y="532"/>
      <point x="867" y="558"/>
      <point x="867" y="628" type="curve" smooth="yes"/>
      <point x="867" y="698"/>
      <point x="834" y="724"/>
      <point x="741" y="724" type="curve" smooth="yes"/>
    </contour>
  </outline>
</glyph>
<glyph name="b.sc" format="2">
  <advance width="650"/>
  <anchor x="303" y="0" name="bottom"/>
  <anchor x="324" y="0" name="bottomC"/>
  <anchor x="409" y="0" name="ogonek"/>
  <anchor x="303" y="560" name="top"/>
  <outline>
    <contour>
      <point x="427" y="0" type="line" smooth="yes"/>
      <point x="563" y="0"/>
      <point x="629" y="49"/>
      <point x="629" y="147" type="curve" smooth="yes"/>
      <point x="629" y="221"/>
      <point x="585" y="266"/>
      <point x="490" y="277" type="curve"/>
      <point x="490" y="280" type="line"/>
      <point x="575" y="294"/>
      <point x="614" y="343"/>
      <point x="614" y="411" type="curve" smooth="yes"/>
      <point x="614" y="510"/>
      <point x="546" y="559"/>
      <point x="405" y="560" type="curve" smooth="yes"/>
      <point x="53" y="560" type="line"/>
      <point x="53" y="0" type="line"/>
    </contour>
    <contour>
      <point x="266" y="216" type="line"/>
      <point x="361" y="216" type="line" smooth="yes"/>
      <point x="385" y="216"/>
      <point x="402" y="206"/>
      <point x="402" y="177" type="curve" smooth="yes"/>
      <point x="402" y="149"/>
      <point x="385" y="138"/>
      <point x="361" y="138" type="curve" smooth="yes"/>
      <point x="266" y="138" type="line"/>
    </contour>
    <contour>
      <point x="266" y="422" type="line"/>
      <point x="337" y="422" type="line" smooth="yes"/>
      <point x="374" y="422"/>
      <point x="387" y="410"/>
      <point x="387" y="383" type="curve" smooth="yes"/>
      <point x="387" y="356"/>
      <point x="374" y="344"/>
      <point x="337" y="344" type="curve" smooth="yes"/>
      <point x="266" y="344" type="line"/>
    </contour>
  </outline>
</glyph>
<glyph name="bar.case" format="2">
  <advance width="372"/>
  <outline>
    <contour>
      <point x="84" y="752" type="line"/>
      <point x="84" y="-97" type="line"/>
      <point x="288" y="-97" type="line"/>
      <point x="288" y="752" type="line"/>
    </contour>
  </outline>
</glyph>
<glyph name="blackCircle.case" format="2">
  <advance width="820"/>
  <outline>
    <contour>
      <point x="604" y="-10"/>
      <point x="750" y="136"/>
      <point x="750" y="330" type="curve" smooth="yes"/>
      <point x="750" y="524"/>
      <point x="604" y="670"/>
      <point x="410" y="670" type="curve" smooth="yes"/>
      <point x="216" y="670"/>
      <point x="70" y="524"/>
      <point x="70" y="330" type="curve" smooth="yes"/>
      <point x="70" y="136"/>
      <point x="216" y="-10"/>
      <point x="410" y="-10" type="curve" smooth="yes"/>
    </contour>
  </outline>
</glyph>
<glyph name="c.sc" format="2">
  <advance width="603"/>
  <anchor x="338" y="0" name="bottom"/>
  <anchor x="335" y="0" name="bottomC"/>
  <anchor x="406" y="0" name="ogonek"/>
  <anchor x="338" y="560" name="top"/>
  <outline>
    <contour>
      <point x="398" y="231" type="line"/>
      <point x="396" y="182"/>
      <point x="373" y="162"/>
      <point x="335" y="162" type="curve" smooth="yes"/>
      <point x="282" y="162"/>
      <point x="257" y="194"/>
      <point x="257" y="280" type="curve" smooth="yes"/>
      <point x="257" y="366"/>
      <point x="285" y="398"/>
      <point x="331" y="398" type="curve" smooth="yes"/>
      <point x="359" y="398"/>
      <point x="392" y="385"/>
      <point x="392" y="326" type="curve"/>
      <point x="596" y="378" type="line"/>
      <point x="581" y="502"/>
      <point x="463" y="568"/>
      <point x="332" y="568" type="curve" smooth="yes"/>
      <point x="137" y="568"/>
      <point x="26" y="466"/>
      <point x="26" y="280" type="curve" smooth="yes"/>
      <point x="26" y="95"/>
      <point x="134" y="-8"/>
      <point x="325" y="-8" type="curve" smooth="yes"/>
      <point x="490" y="-8"/>
      <point x="587" y="73"/>
      <point x="598" y="179" type="curve"/>
    </contour>
  </outline>
</glyph>
<glyph name="caroncmb.asc" format="2">
  <anchor x="0" y="700" name="_top"/>
  <outline>
    <contour>
      <point x="50" y="913" type="line"/>
      <point x="-5" y="831" type="line"/>
      <point x="-60" y="913" type="line"/>
      <point x="-208" y="913" type="line"/>
      <point x="-114" y="746" type="line"/>
      <point x="104" y="746" type="line"/>
      <point x="198" y="913" type="line"/>
    </contour>
  </outline>
</glyph>
<glyph name="caroncmb.cap" format="2">
  <anchor x="0" y="660" name="_top"/>
  <outline>
    <contour>
      <point x="55" y="876" type="line"/>
      <point x="0" y="794" type="line"/>
      <point x="-55" y="876" type="line"/>
      <point x="-203" y="876" type="line"/>
      <point x="-109" y="709" type="line"/>
      <point x="109" y="709" type="line"/>
      <point x="203" y="876" type="line"/>
    </contour>
  </outline>
</glyph>
<glyph name="cent.001" format="2">
  <advance width="585"/>
  <outline>
    <contour>
      <point x="131" y="510"/>
      <point x="29" y="416"/>
      <point x="29" y="250" type="curve" smooth="yes"/>
      <point x="29" y="84"/>
      <point x="128" y="-10"/>
      <point x="318" y="-10" type="curve" smooth="yes"/>
      <point x="477" y="-10"/>
      <point x="568" y="56"/>
      <point x="570" y="148" type="curve"/>
      <point x="389" y="194" type="line"/>
      <point x="384" y="154"/>
      <point x="358" y="132"/>
      <point x="317" y="132" type="curve" smooth="yes"/>
      <point x="271" y="132"/>
      <point x="240" y="155"/>
      <point x="240" y="247" type="curve" smooth="yes"/>
      <point x="240" y="337"/>
      <point x="266" y="368"/>
      <point x="319" y="368" type="curve" smooth="yes"/>
      <point x="358" y="368"/>
      <point x="382" y="343"/>
      <point x="385" y="295" type="curve"/>
      <point x="571" y="338" type="line"/>
      <point x="566" y="425"/>
      <point x="503" y="510"/>
      <point x="308" y="510" type="curve" smooth="yes"/>
    </contour>
    <contour>
      <point x="234" y="60" type="line"/>
      <point x="234" y="-110" type="line"/>
      <point x="379" y="-110" type="line"/>
      <point x="379" y="60" type="line"/>
    </contour>
    <contour>
      <point x="234" y="610" type="line"/>
      <point x="234" y="440" type="line"/>
      <point x="379" y="440" type="line"/>
      <point x="379" y="610" type="line"/>
    </contour>
  </outline>
</glyph>
<glyph name="dollar.tf" format="2">
  <advance width="604"/>
  <outline>
    <contour>
      <point x="139" y="660"/>
      <point x="39" y="573"/>
      <point x="39" y="450" type="curve" smooth="yes"/>
      <point x="39" y="194"/>
      <point x="399" y="273"/>
      <point x="399" y="188" type="curve" smooth="yes"/>
      <point x="399" y="164"/>
      <point x="380" y="148"/>
      <point x="301" y="148" type="curve" smooth="yes"/>
      <point x="236" y="148"/>
      <point x="150" y="175"/>
      <point x="115" y="235" type="curve"/>
      <point x="12" y="96" type="line"/>
      <point x="81" y="34"/>
      <point x="158" y="0"/>
      <point x="309" y="0" type="curve" smooth="yes"/>
      <point x="458" y="0"/>
      <point x="578" y="69"/>
      <point x="578" y="197" type="curve" smooth="yes"/>
      <point x="578" y="446"/>
      <point x="219" y="371"/>
      <point x="219" y="464" type="curve" smooth="yes"/>
      <point x="219" y="492"/>
      <point x="248" y="512"/>
      <point x="320" y="512" type="curve" smooth="yes"/>
      <point x="385" y="512"/>
      <point x="455" y="488"/>
      <point x="490" y="425" type="curve"/>
      <point x="591" y="552" type="line"/>
      <point x="517" y="613"/>
      <point x="462" y="660"/>
      <point x="314" y="660" type="curve" smooth="yes"/>
    </contour>
    <contour>
      <point x="252" y="740" type="line"/>
      <point x="252" y="-80" type="line"/>
      <point x="367" y="-80" type="line"/>
      <point x="367" y="740" type="line"/>
    </contour>
  </outline>
</glyph>
<glyph name="eight.osf" format="2">
  <advance width="640"/>
  <outline>
    <contour>
      <point x="152" y="667"/>
      <point x="52" y="596"/>
      <point x="52" y="476" type="curve" smooth="yes"/>
      <point x="52" y="409"/>
      <point x="92" y="360"/>
      <point x="166" y="331" type="curve"/>
      <point x="166" y="330" type="line"/>
      <point x="82" y="305"/>
      <point x="33" y="249"/>
      <point x="33" y="178" type="curve" smooth="yes"/>
      <point x="33" y="57"/>
      <point x="139" y="-10"/>
      <point x="320" y="-10" type="curve" smooth="yes"/>
      <point x="501" y="-10"/>
      <point x="607" y="57"/>
      <point x="607" y="178" type="curve" smooth="yes"/>
      <point x="607" y="251"/>
      <point x="555" y="306"/>
      <point x="474" y="330" type="curve"/>
      <point x="474" y="331" type="line"/>
      <point x="550" y="361"/>
      <point x="588" y="409"/>
      <point x="588" y="476" type="curve" smooth="yes"/>
      <point x="588" y="596"/>
      <point x="487" y="667"/>
      <point x="320" y="667" type="curve" smooth="yes"/>
    </contour>
    <contour>
      <point x="360" y="517"/>
      <point x="383" y="497"/>
      <point x="383" y="461" type="curve" smooth="yes"/>
      <point x="383" y="425"/>
      <point x="360" y="405"/>
      <point x="320" y="405" type="curve" smooth="yes"/>
      <point x="280" y="405"/>
      <point x="257" y="425"/>
      <point x="257" y="461" type="curve" smooth="yes"/>
      <point x="257" y="497"/>
      <point x="280" y="517"/>
      <point x="320" y="517" type="curve" smooth="yes"/>
    </contour>
    <contour>
      <point x="279" y="140"/>
      <point x="256" y="161"/>
      <point x="256" y="197" type="curve" smooth="yes"/>
      <point x="256" y="233"/>
      <point x="279" y="254"/>
      <point x="320" y="254" type="curve" smooth="yes"/>
      <point x="361" y="254"/>
      <point x="384" y="233"/>
      <point x="384" y="197" type="curve" smooth="yes"/>
      <point x="384" y="161"/>
      <point x="361" y="140"/>
      <point x="320" y="140" type="curve" smooth="yes"/>
    </contour>
  </outline>
</glyph>
<glyph name="f.sc" format="2">
  <advance width="585"/>
  <anchor x="168" y="0" name="bottom"/>
  <anchor x="168" y="0" name="bottomC"/>
  <anchor x="283" y="0" name="ogonek"/>
  <anchor x="308" y="560" name="top"/>
  <outline>
    <contour>
      <point x="53" y="560" type="line"/>
      <point x="53" y="0" type="line"/>
      <point x="278" y="0" type="line"/>
      <point x="278" y="560" type="line"/>
    </contour>
    <contour>
      <point x="168" y="342" type="line"/>
      <point x="168" y="189" type="line"/>
      <point x="499" y="189" type="line"/>
      <point x="499" y="342" type="line"/>
    </contour>
    <contour>
      <point x="168" y="560" type="line"/>
      <point x="168" y="407" type="line"/>
      <point x="562" y="407" type="line"/>
      <point x="562" y="560" type="line"/>
    </contour>
  </outline>
</glyph>
<glyph name="florin.tf" format="2">
  <advance width="604"/>
  <outline>
    <contour>
      <point x="379" y="722"/>
      <point x="299" y="653"/>
      <point x="277" y="530" type="curve" smooth="yes"/>
      <point x="198" y="90" type="line" smooth="yes"/>
      <point x="190" y="47"/>
      <point x="157" y="20"/>
      <point x="112" y="20" type="curve" smooth="yes"/>
      <point x="95" y="20"/>
      <point x="79" y="24"/>
      <point x="68" y="31" type="curve"/>
      <point x="40" y="-99" type="line"/>
      <point x="73" y="-121"/>
      <point x="102" y="-128"/>
      <point x="158" y="-128" type="curve" smooth="yes"/>
      <point x="283" y="-128"/>
      <point x="364" y="-59"/>
      <point x="386" y="63" type="curve" smooth="yes"/>
      <point x="465" y="503" type="line" smooth="yes"/>
      <point x="473" y="547"/>
      <point x="505" y="574"/>
      <point x="551" y="574" type="curve" smooth="yes"/>
      <point x="568" y="574"/>
      <point x="583" y="570"/>
      <point x="595" y="563" type="curve"/>
      <point x="623" y="693" type="line"/>
      <point x="590" y="715"/>
      <point x="561" y="722"/>
      <point x="505" y="722" type="curve" smooth="yes"/>
    </contour>
    <contour>
      <point x="100" y="429" type="line"/>
      <point x="100" y="277" type="line"/>
      <point x="578" y="277" type="line"/>
      <point x="578" y="429" type="line"/>
    </contour>
  </outline>
</glyph>
<glyph name="four.tosf" format="2">
  <advance width="604"/>
  <outline>
    <contour>
      <point x="499" y="-100" type="line"/>
      <point x="499" y="26" type="line"/>
      <point x="590" y="26" type="line"/>
      <point x="590" y="177" type="line"/>
      <point x="499" y="177" type="line"/>
      <point x="499" y="560" type="line"/>
      <point x="235" y="560" type="line"/>
      <point x="17" y="122" type="line"/>
      <point x="17" y="26" type="line"/>
      <point x="299" y="26" type="line"/>
      <point x="299" y="-100" type="line"/>
    </contour>
    <contour>
      <point x="280" y="344" type="line" smooth="yes"/>
      <point x="289" y="362"/>
      <point x="305" y="399"/>
      <point x="309" y="416" type="curve"/>
      <point x="312" y="416" type="line"/>
      <point x="310" y="358"/>
      <point x="308" y="276"/>
      <point x="308" y="238" type="curve" smooth="yes"/>
      <point x="308" y="177" type="line"/>
      <point x="197" y="177" type="line"/>
    </contour>
  </outline>
</glyph>
<glyph name="g.ss01" format="2">
  <advance width="627"/>
  <anchor x="314" y="-210" name="bottom"/>
  <anchor x="298" y="-210" name="bottomC"/>
  <anchor x="418" y="-200" name="ogonek"/>
  <anchor x="325" y="500" name="top"/>
  <outline>
    <contour>
      <point x="380" y="500" type="line"/>
      <point x="377" y="374" type="line"/>
      <point x="358" y="365" type="line"/>
      <point x="358" y="-15" type="line" smooth="yes"/>
      <point x="358" y="-65"/>
      <point x="341" y="-83"/>
      <point x="310" y="-83" type="curve" smooth="yes"/>
      <point x="275" y="-83"/>
      <point x="258" y="-58"/>
      <point x="260" y="-4" type="curve"/>
      <point x="39" y="-54" type="line"/>
      <point x="57" y="-186"/>
      <point x="159" y="-215"/>
      <point x="290" y="-215" type="curve" smooth="yes"/>
      <point x="462" y="-215"/>
      <point x="588" y="-154"/>
      <point x="588" y="40" type="curve" smooth="yes"/>
      <point x="588" y="383" type="line"/>
      <point x="588" y="500" type="line"/>
    </contour>
    <contour>
      <point x="95" y="510"/>
      <point x="25" y="420"/>
      <point x="25" y="264" type="curve" smooth="yes"/>
      <point x="25" y="111"/>
      <point x="93" y="23"/>
      <point x="216" y="23" type="curve" smooth="yes"/>
      <point x="332" y="23"/>
      <point x="396" y="118"/>
      <point x="396" y="238" type="curve"/>
      <point x="358" y="263" type="line"/>
      <point x="358" y="205"/>
      <point x="340" y="184"/>
      <point x="309" y="184" type="curve" smooth="yes"/>
      <point x="277" y="184"/>
      <point x="257" y="200"/>
      <point x="257" y="266" type="curve" smooth="yes"/>
      <point x="257" y="332"/>
      <point x="277" y="348"/>
      <point x="309" y="348" type="curve" smooth="yes"/>
      <point x="343" y="348"/>
      <point x="358" y="323"/>
      <point x="358" y="270" type="curve"/>
      <point x="382" y="295" type="line"/>
      <point x="382" y="416"/>
      <point x="333" y="510"/>
      <point x="217" y="510" type="curve" smooth="yes"/>
    </contour>
  </outline>
</glyph>
<glyph name="i.sc" format="2">
  <advance width="336"/>
  <anchor x="168" y="0" name="bottom"/>
  <anchor x="168" y="0" name="bottomC"/>
  <anchor x="283" y="0" name="ogonek"/>
  <anchor x="168" y="560" name="top"/>
  <outline>
    <contour>
      <point x="53" y="560" type="line"/>
      <point x="53" y="0" type="line"/>
      <point x="283" y="0" type="line"/>
      <point x="283" y="560" type="line"/>
    </contour>
  </outline>
</glyph>
<glyph name="iogonek_j" format="2">
  <advance width="613"/>
  <anchor x="250" y="10" name="ogonek_1"/>
  <anchor x="441" y="-204" name="ogonek_2"/>
  <anchor x="154" y="0" name="bottomC_1"/>
  <anchor x="419" y="-210" name="bottomC_2"/>
  <anchor x="154" y="0" name="bottom_1"/>
  <anchor x="419" y="-210" name="bottom_2"/>
  <anchor x="154" y="714" name="top_1"/>
  <anchor x="460" y="714" name="top_2"/>
  <outline>
    <contour>
      <point x="169" y="-215"/>
      <point x="200" y="-210"/>
      <point x="220" y="-195" type="curve"/>
      <point x="241" y="-85" type="line"/>
      <point x="230" y="-92"/>
      <point x="213" y="-94"/>
      <point x="194" y="-94" type="curve" smooth="yes"/>
      <point x="170" y="-94"/>
      <point x="155" y="-79"/>
      <point x="155" y="-60" type="curve" smooth="yes"/>
      <point x="155" y="-29"/>
      <point x="183" y="0"/>
      <point x="268" y="0" type="curve"/>
      <point x="178" y="27" type="line"/>
      <point x="66" y="27"/>
      <point x="2" y="-25"/>
      <point x="2" y="-100" type="curve" smooth="yes"/>
      <point x="2" y="-166"/>
      <point x="51" y="-215"/>
      <point x="135" y="-215" type="curve" smooth="yes"/>
    </contour>
    <component base="i"/>
    <component base="j.ogonek" xOffset="261"/>
  </outline>
</glyph>
<glyph name="nine.sc" format="2">
  <advance width="579"/>
  <outline>
    <contour>
      <point x="456" y="-8"/>
      <point x="549" y="88"/>
      <point x="549" y="276" type="curve" smooth="yes"/>
      <point x="549" y="473"/>
      <point x="448" y="568"/>
      <point x="278" y="568" type="curve" smooth="yes"/>
      <point x="109" y="568"/>
      <point x="25" y="484"/>
      <point x="27" y="375" type="curve" smooth="yes"/>
      <point x="29" y="260"/>
      <point x="126" y="209"/>
      <point x="210" y="209" type="curve" smooth="yes"/>
      <point x="287" y="209"/>
      <point x="330" y="232"/>
      <point x="347" y="269" type="curve"/>
      <point x="349" y="269" type="line"/>
      <point x="349" y="267"/>
      <point x="349" y="262"/>
      <point x="349" y="261" type="curve" smooth="yes"/>
      <point x="349" y="164"/>
      <point x="311" y="144"/>
      <point x="268" y="144" type="curve" smooth="yes"/>
      <point x="232" y="144"/>
      <point x="206" y="161"/>
      <point x="204" y="196" type="curve"/>
      <point x="31" y="113" type="line"/>
      <point x="81" y="23"/>
      <point x="155" y="-8"/>
      <point x="275" y="-8" type="curve" smooth="yes"/>
    </contour>
    <contour>
      <point x="246" y="330"/>
      <point x="230" y="346"/>
      <point x="230" y="373" type="curve" smooth="yes"/>
      <point x="230" y="400"/>
      <point x="246" y="416"/>
      <point x="275" y="416" type="curve" smooth="yes"/>
      <point x="304" y="416"/>
      <point x="320" y="400"/>
      <point x="320" y="373" type="curve" smooth="yes"/>
      <point x="320" y="346"/>
      <point x="304" y="330"/>
      <point x="275" y="330" type="curve" smooth="yes"/>
    </contour>
  </outline>
</glyph>
<glyph name="numbersign.tf" format="2">
  <advance width="604"/>
  <outline>
    <contour>
      <point x="416" y="660" type="line"/>
      <point x="312" y="0" type="line"/>
      <point x="430" y="0" type="line"/>
      <point x="534" y="660" type="line"/>
    </contour>
    <contour>
      <point x="11" y="271" type="line"/>
      <point x="11" y="142" type="line"/>
      <point x="570" y="142" type="line"/>
      <point x="570" y="271" type="line"/>
    </contour>
    <contour>
      <point x="178" y="660" type="line"/>
      <point x="74" y="0" type="line"/>
      <point x="192" y="0" type="line"/>
      <point x="296" y="660" type="line"/>
    </contour>
    <contour>
      <point x="33" y="518" type="line"/>
      <point x="33" y="389" type="line"/>
      <point x="592" y="389" type="line"/>
      <point x="592" y="518" type="line"/>
    </contour>
  </outline>
</glyph>
<glyph name="o.sc" format="2">
  <advance width="660"/>
  <anchor x="330" y="0" name="bottom"/>
  <anchor x="330" y="0" name="bottomC"/>
  <anchor x="410" y="0" name="ogonek"/>
  <anchor x="330" y="560" name="top"/>
  <outline>
    <contour>
      <point x="140" y="568"/>
      <point x="26" y="462"/>
      <point x="26" y="280" type="curve" smooth="yes"/>
      <point x="26" y="98"/>
      <point x="140" y="-8"/>
      <point x="330" y="-8" type="curve" smooth="yes"/>
      <point x="520" y="-8"/>
      <point x="634" y="98"/>
      <point x="634" y="280" type="curve" smooth="yes"/>
      <point x="634" y="462"/>
      <point x="520" y="568"/>
      <point x="330" y="568" type="curve" smooth="yes"/>
    </contour>
    <contour>
      <point x="383" y="398"/>
      <point x="403" y="367"/>
      <point x="403" y="280" type="curve" smooth="yes"/>
      <point x="403" y="193"/>
      <point x="383" y="162"/>
      <point x="330" y="162" type="curve" smooth="yes"/>
      <point x="277" y="162"/>
      <point x="257" y="193"/>
      <point x="257" y="280" type="curve" smooth="yes"/>
      <point x="257" y="367"/>
      <point x="277" y="398"/>
      <point x="330" y="398" type="curve" smooth="yes"/>
    </contour>
  </outline>
</glyph>
<glyph name="one.osf" format="2">
  <advance width="459"/>
  <outline>
    <contour>
      <point x="403" y="560" type="line"/>
      <point x="222" y="560" type="line"/>
      <point x="204" y="521"/>
      <point x="180" y="429"/>
      <point x="180" y="386" type="curve" smooth="yes"/>
      <point x="180" y="0" type="line"/>
      <point x="403" y="0" type="line"/>
      <point x="403" y="406" type="line"/>
    </contour>
    <contour>
      <point x="161" y="276"/>
      <point x="272" y="429"/>
      <point x="307" y="518" type="curve"/>
      <point x="222" y="560" type="line"/>
      <point x="192" y="513"/>
      <point x="102" y="463"/>
      <point x="20" y="454" type="curve"/>
      <point x="33" y="267" type="line"/>
    </contour>
  </outline>
</glyph>
<glyph name="one.sc" format="2">
  <advance width="446"/>
  <outline>
    <contour>
      <point x="390" y="560" type="line"/>
      <point x="202" y="560" type="line"/>
      <point x="175" y="449"/>
      <point x="160" y="328"/>
      <point x="160" y="246" type="curve" smooth="yes"/>
      <point x="160" y="0" type="line"/>
      <point x="390" y="0" type="line"/>
      <point x="390" y="406" type="line"/>
    </contour>
    <contour>
      <point x="159" y="320"/>
      <point x="261" y="429"/>
      <point x="295" y="518" type="curve"/>
      <point x="202" y="560" type="line"/>
      <point x="160" y="522"/>
      <point x="96" y="494"/>
      <point x="20" y="484" type="curve"/>
      <point x="36" y="311" type="line"/>
    </contour>
  </outline>
</glyph>
<glyph name="one.tosf" format="2">
  <advance width="604"/>
  <outline>
    <contour>
      <point x="588" y="0" type="line"/>
      <point x="588" y="162" type="line"/>
      <point x="68" y="162" type="line"/>
      <point x="68" y="0" type="line"/>
    </contour>
    <contour>
      <point x="445" y="560" type="line"/>
      <point x="283" y="560" type="line"/>
      <point x="259" y="509"/>
      <point x="241" y="439"/>
      <point x="241" y="386" type="curve" smooth="yes"/>
      <point x="241" y="0" type="line"/>
      <point x="445" y="0" type="line"/>
      <point x="445" y="406" type="line"/>
    </contour>
    <contour>
      <point x="216" y="301"/>
      <point x="332" y="429"/>
      <point x="368" y="518" type="curve"/>
      <point x="283" y="560" type="line"/>
      <point x="251" y="513"/>
      <point x="157" y="463"/>
      <point x="71" y="454" type="curve"/>
      <point x="84" y="292" type="line"/>
    </contour>
  </outline>
</glyph>
<glyph name="p.sc" format="2">
  <advance width="642"/>
  <anchor x="168" y="0" name="bottom"/>
  <anchor x="320" y="560" name="top"/>
  <outline>
    <contour>
      <point x="384" y="153" type="line" smooth="yes"/>
      <point x="533" y="153"/>
      <point x="619" y="227"/>
      <point x="619" y="356" type="curve" smooth="yes"/>
      <point x="619" y="486"/>
      <point x="533" y="560"/>
      <point x="384" y="560" type="curve" smooth="yes"/>
      <point x="198" y="560" type="line"/>
      <point x="198" y="410" type="line"/>
      <point x="336" y="410" type="line" smooth="yes"/>
      <point x="375" y="410"/>
      <point x="395" y="393"/>
      <point x="395" y="354" type="curve" smooth="yes"/>
      <point x="395" y="315"/>
      <point x="375" y="298"/>
      <point x="336" y="298" type="curve" smooth="yes"/>
      <point x="198" y="298" type="line"/>
      <point x="198" y="153" type="line"/>
    </contour>
    <contour>
      <point x="278" y="0" type="line"/>
      <point x="278" y="560" type="line"/>
      <point x="53" y="560" type="line"/>
      <point x="53" y="0" type="line"/>
    </contour>
  </outline>
</glyph>
<glyph name="periodsuperior" format="2">
  <advance width="254"/>
  <outline>
    <contour>
      <point x="65" y="487"/>
      <point x="32" y="459"/>
      <point x="32" y="407" type="curve" smooth="yes"/>
      <point x="32" y="355"/>
      <point x="65" y="327"/>
      <point x="127" y="327" type="curve" smooth="yes"/>
      <point x="189" y="327"/>
      <point x="222" y="355"/>
      <point x="222" y="407" type="curve" smooth="yes"/>
      <point x="222" y="459"/>
      <point x="189" y="487"/>
      <point x="127" y="487" type="curve" smooth="yes"/>
    </contour>
  </outline>
</glyph>
<glyph name="question.sc" format="2">
  <advance width="566"/>
  <outline>
    <contour>
      <point x="108" y="568"/>
      <point x="22" y="523"/>
      <point x="3" y="416" type="curve"/>
      <point x="215" y="356" type="line"/>
      <point x="220" y="398"/>
      <point x="241" y="410"/>
      <point x="285" y="410" type="curve" smooth="yes"/>
      <point x="320" y="410"/>
      <point x="337" y="398"/>
      <point x="337" y="376" type="curve" smooth="yes"/>
      <point x="337" y="348"/>
      <point x="317" y="332"/>
      <point x="168" y="320" type="curve"/>
      <point x="173" y="207" type="line"/>
      <point x="373" y="207" type="line"/>
      <point x="384" y="276" type="line"/>
      <point x="460" y="278"/>
      <point x="555" y="315"/>
      <point x="555" y="410" type="curve" smooth="yes"/>
      <point x="555" y="523"/>
      <point x="443" y="568"/>
      <point x="285" y="568" type="curve" smooth="yes"/>
    </contour>
    <component base="period" xScale="0.9" yScale="0.85" xOffset="135"/>
  </outline>
</glyph>
<glyph name="quotesingle.sc" format="2">
  <advance width="260"/>
  <outline>
    <contour>
      <point x="50" y="590" type="line"/>
      <point x="50" y="293" type="line"/>
      <point x="197" y="293" type="line"/>
      <point x="229" y="590" type="line"/>
    </contour>
  </outline>
</glyph>
<glyph name="s.sc" format="2">
  <advance width="585"/>
  <anchor x="312" y="0" name="bottom"/>
  <anchor x="306" y="0" name="bottomC"/>
  <anchor x="376" y="0" name="ogonek"/>
  <anchor x="294" y="560" name="top"/>
  <outline>
    <contour>
      <point x="128" y="568"/>
      <point x="20" y="496"/>
      <point x="20" y="371" type="curve" smooth="yes"/>
      <point x="20" y="148"/>
      <point x="337" y="224"/>
      <point x="337" y="169" type="curve" smooth="yes"/>
      <point x="337" y="156"/>
      <point x="323" y="148"/>
      <point x="287" y="148" type="curve" smooth="yes"/>
      <point x="213" y="148"/>
      <point x="170" y="160"/>
      <point x="97" y="206" type="curve"/>
      <point x="16" y="60" type="line"/>
      <point x="97" y="7"/>
      <point x="178" y="-8"/>
      <point x="290" y="-8" type="curve" smooth="yes"/>
      <point x="459" y="-8"/>
      <point x="567" y="64"/>
      <point x="567" y="189" type="curve" smooth="yes"/>
      <point x="567" y="406"/>
      <point x="250" y="333"/>
      <point x="250" y="387" type="curve" smooth="yes"/>
      <point x="250" y="400"/>
      <point x="264" y="413"/>
      <point x="300" y="413" type="curve" smooth="yes"/>
      <point x="374" y="413"/>
      <point x="412" y="398"/>
      <point x="487" y="351" type="curve"/>
      <point x="570" y="496" type="line"/>
      <point x="491" y="546"/>
      <point x="429" y="568"/>
      <point x="297" y="568" type="curve" smooth="yes"/>
    </contour>
  </outline>
</glyph>
<glyph name="seven.sc" format="2">
  <advance width="578"/>
  <outline>
    <contour>
      <point x="38" y="392" type="line"/>
      <point x="426" y="392" type="line"/>
      <point x="379" y="444" type="line"/>
      <point x="213" y="324"/>
      <point x="164" y="157"/>
      <point x="164" y="0" type="curve"/>
      <point x="386" y="0" type="line"/>
      <point x="386" y="116"/>
      <point x="397" y="292"/>
      <point x="544" y="404" type="curve"/>
      <point x="544" y="560" type="line"/>
      <point x="38" y="560" type="line"/>
    </contour>
  </outline>
</glyph>
<glyph name="six.tf" format="2">
  <advance width="604"/>
  <outline>
    <contour>
      <point x="164" y="670"/>
      <point x="36" y="573"/>
      <point x="36" y="330" type="curve" smooth="yes"/>
      <point x="36" y="101"/>
      <point x="140" y="-10"/>
      <point x="330" y="-10" type="curve" smooth="yes"/>
      <point x="490" y="-10"/>
      <point x="585" y="75"/>
      <point x="585" y="207" type="curve" smooth="yes"/>
      <point x="585" y="328"/>
      <point x="505" y="406"/>
      <point x="391" y="406" type="curve" smooth="yes"/>
      <point x="314" y="406"/>
      <point x="264" y="379"/>
      <point x="245" y="342" type="curve"/>
      <point x="243" y="342" type="line"/>
      <point x="243" y="351"/>
      <point x="243" y="355"/>
      <point x="243" y="359" type="curve" smooth="yes"/>
      <point x="243" y="453"/>
      <point x="276" y="493"/>
      <point x="321" y="493" type="curve" smooth="yes"/>
      <point x="361" y="493"/>
      <point x="386" y="471"/>
      <point x="393" y="432" type="curve"/>
      <point x="579" y="519" type="line"/>
      <point x="539" y="632"/>
      <point x="440" y="670"/>
      <point x="334" y="670" type="curve" smooth="yes"/>
    </contour>
    <contour>
      <point x="361" y="265"/>
      <point x="381" y="245"/>
      <point x="381" y="209" type="curve" smooth="yes"/>
      <point x="381" y="173"/>
      <point x="361" y="153"/>
      <point x="325" y="153" type="curve" smooth="yes"/>
      <point x="289" y="153"/>
      <point x="269" y="173"/>
      <point x="269" y="209" type="curve" smooth="yes"/>
      <point x="269" y="245"/>
      <point x="289" y="265"/>
      <point x="325" y="265" type="curve" smooth="yes"/>
    </contour>
  </outline>
</glyph>
<glyph name="sterling.part" format="2">
  <advance width="622"/>
  <outline>
    <contour>
      <point x="138" y="670"/>
      <point x="60" y="575"/>
      <point x="60" y="479" type="curve" smooth="yes"/>
      <point x="60" y="430"/>
      <point x="73" y="392"/>
      <point x="122" y="328" type="curve" smooth="yes"/>
      <point x="173" y="262"/>
      <point x="189" y="218"/>
      <point x="189" y="158" type="curve" smooth="yes"/>
      <point x="189" y="81"/>
      <point x="173" y="61"/>
      <point x="141" y="61" type="curve" smooth="yes"/>
      <point x="119" y="61"/>
      <point x="106" y="71"/>
      <point x="106" y="88" type="curve" smooth="yes"/>
      <point x="106" y="105"/>
      <point x="119" y="115"/>
      <point x="143" y="115" type="curve" smooth="yes"/>
      <point x="253" y="115"/>
      <point x="300" y="-10"/>
      <point x="448" y="-10" type="curve" smooth="yes"/>
      <point x="566" y="-10"/>
      <point x="613" y="101"/>
      <point x="585" y="191" type="curve"/>
      <point x="458" y="211" type="line"/>
      <point x="462" y="163"/>
      <point x="443" y="139"/>
      <point x="404" y="139" type="curve" smooth="yes"/>
      <point x="320" y="139"/>
      <point x="297" y="184"/>
      <point x="146" y="184" type="curve" smooth="yes"/>
      <point x="79" y="184"/>
      <point x="14" y="155"/>
      <point x="14" y="87" type="curve" smooth="yes"/>
      <point x="14" y="22"/>
      <point x="72" y="-10"/>
      <point x="141" y="-10" type="curve" smooth="yes"/>
      <point x="263" y="-10"/>
      <point x="346" y="94"/>
      <point x="346" y="223" type="curve" smooth="yes"/>
      <point x="346" y="279"/>
      <point x="333" y="324"/>
      <point x="292" y="384" type="curve" smooth="yes"/>
      <point x="267" y="421"/>
      <point x="258" y="445"/>
      <point x="258" y="467" type="curve" smooth="yes"/>
      <point x="258" y="497"/>
      <point x="280" y="513"/>
      <point x="310" y="513" type="curve" smooth="yes"/>
      <point x="350" y="513"/>
      <point x="374" y="490"/>
      <point x="393" y="401" type="curve"/>
      <point x="576" y="482" type="line"/>
      <point x="553" y="608"/>
      <point x="464" y="670"/>
      <point x="315" y="670" type="curve" smooth="yes"/>
    </contour>
  </outline>
</glyph>
<glyph name="sterling.tf" format="2">
  <advance width="604"/>
  <outline>
    <contour>
      <point x="33" y="373" type="line"/>
      <point x="33" y="262" type="line"/>
      <point x="506" y="262" type="line"/>
      <point x="506" y="373" type="line"/>
    </contour>
    <component base="sterling.part.tf" xOffset="-3"/>
  </outline>
</glyph>
<glyph name="t.sc" format="2">
  <advance width="645"/>
  <anchor x="322" y="0" name="bottom"/>
  <anchor x="350" y="0" name="bottomC"/>
  <anchor x="325" y="229" name="center"/>
  <anchor x="437" y="0" name="ogonek"/>
  <anchor x="322" y="560" name="top"/>
  <outline>
    <contour>
      <point x="208" y="516" type="line"/>
      <point x="208" y="0" type="line"/>
      <point x="437" y="0" type="line"/>
      <point x="437" y="516" type="line"/>
    </contour>
    <contour>
      <point x="27" y="560" type="line"/>
      <point x="27" y="392" type="line"/>
      <point x="618" y="392" type="line"/>
      <point x="618" y="560" type="line"/>
    </contour>
  </outline>
</glyph>
<glyph name="t.swsh" format="2">
  <advance width="565"/>
  <anchor x="251" y="0" name="bottom"/>
  <anchor x="284" y="0" name="bottomC"/>
  <anchor x="156" y="250" name="center"/>
  <anchor x="407" y="10" name="ogonek"/>
  <anchor x="193" y="730" name="top"/>
  <anchor x="367" y="767" name="topright"/>
  <outline>
    <contour>
      <point x="78" y="606" type="line"/>
      <point x="78" y="168" type="line" smooth="yes"/>
      <point x="78" y="38"/>
      <point x="152" y="-10"/>
      <point x="292" y="-10" type="curve" smooth="yes"/>
      <point x="342" y="-10"/>
      <point x="407" y="3"/>
      <point x="441" y="24" type="curve"/>
      <point x="431" y="154" type="line"/>
      <point x="413" y="145"/>
      <point x="395" y="141"/>
      <point x="368" y="141" type="curve" smooth="yes"/>
      <point x="327" y="141"/>
      <point x="308" y="158"/>
      <point x="308" y="204" type="curve" smooth="yes"/>
      <point x="308" y="670" type="line"/>
    </contour>
    <contour>
      <point x="545" y="508"/>
      <point x="505" y="500"/>
      <point x="438" y="500" type="curve" smooth="yes"/>
      <point x="1" y="500" type="line"/>
      <point x="1" y="345" type="line"/>
      <point x="448" y="345" type="line" smooth="yes"/>
      <point x="537" y="345"/>
      <point x="608" y="365"/>
      <point x="658" y="420" type="curve"/>
      <point x="595" y="544" type="line"/>
    </contour>
  </outline>
</glyph>
<glyph name="t_t.liga" format="2">
  <advance width="841"/>
  <anchor x="647" y="0" name="bottom"/>
  <anchor x="552" y="250" name="center"/>
  <anchor x="763" y="767" name="topright"/>
  <outline>
    <contour>
      <point x="78" y="606" type="line"/>
      <point x="78" y="168" type="line" smooth="yes"/>
      <point x="78" y="38"/>
      <point x="148" y="-10"/>
      <point x="280" y="-10" type="curve" smooth="yes"/>
      <point x="327" y="-10"/>
      <point x="389" y="3"/>
      <point x="421" y="24" type="curve"/>
      <point x="407" y="156" type="line"/>
      <point x="391" y="145"/>
      <point x="378" y="141"/>
      <point x="352" y="141" type="curve" smooth="yes"/>
      <point x="313" y="141"/>
      <point x="308" y="158"/>
      <point x="308" y="204" type="curve" smooth="yes"/>
      <point x="308" y="670" type="line"/>
    </contour>
    <contour>
      <point x="1" y="500" type="line"/>
      <point x="1" y="345" type="line"/>
      <point x="434" y="345" type="line"/>
      <point x="434" y="500" type="line"/>
    </contour>
    <contour>
      <point x="474" y="606" type="line"/>
      <point x="474" y="168" type="line" smooth="yes"/>
      <point x="474" y="38"/>
      <point x="548" y="-10"/>
      <point x="688" y="-10" type="curve" smooth="yes"/>
      <point x="738" y="-10"/>
      <point x="803" y="3"/>
      <point x="837" y="24" type="curve"/>
      <point x="827" y="154" type="line"/>
      <point x="809" y="145"/>
      <point x="791" y="141"/>
      <point x="764" y="141" type="curve" smooth="yes"/>
      <point x="723" y="141"/>
      <point x="704" y="158"/>
      <point x="704" y="204" type="curve" smooth="yes"/>
      <point x="704" y="670" type="line"/>
    </contour>
    <contour>
      <point x="397" y="500" type="line"/>
      <point x="397" y="345" type="line"/>
      <point x="830" y="345" type="line"/>
      <point x="830" y="500" type="line"/>
    </contour>
  </outline>
</glyph>
<glyph name="w.sc" format="2">
  <advance width="987"/>
  <anchor x="494" y="0" name="bottom"/>
  <anchor x="709" y="0" name="bottomC"/>
  <anchor x="836" y="0" name="ogonek"/>
  <anchor x="494" y="560" name="top"/>
  <outline>
    <contour>
      <point x="497" y="355" type="line"/>
      <point x="537" y="119" type="line"/>
      <point x="561" y="0" type="line"/>
      <point x="836" y="0" type="line"/>
      <point x="995" y="560" type="line"/>
      <point x="753" y="560" type="line"/>
      <point x="702" y="283" type="line"/>
      <point x="683" y="162" type="line"/>
      <point x="611" y="560" type="line"/>
      <point x="377" y="560" type="line"/>
      <point x="309" y="162" type="line"/>
      <point x="289" y="283" type="line"/>
      <point x="238" y="560" type="line"/>
      <point x="-8" y="560" type="line"/>
      <point x="151" y="0" type="line"/>
      <point x="435" y="0" type="line"/>
      <point x="458" y="119" type="line"/>
      <point x="495" y="355" type="line"/>
    </contour>
  </outline>
</glyph>
<glyph name="yen.tf" format="2">
  <advance width="604"/>
  <outline>
    <contour>
      <point x="12" y="660" type="line"/>
      <point x="193" y="275" type="line"/>
      <point x="411" y="275" type="line"/>
      <point x="592" y="660" type="line"/>
      <point x="387" y="660" type="line"/>
      <point x="328" y="474" type="line"/>
      <point x="303" y="368" type="line"/>
      <point x="301" y="368" type="line"/>
      <point x="276" y="474" type="line"/>
      <point x="217" y="660" type="line"/>
    </contour>
    <contour>
      <point x="411" y="0" type="line"/>
      <point x="411" y="275" type="line"/>
      <point x="193" y="275" type="line"/>
      <point x="193" y="0" type="line"/>
    </contour>
    <contour>
      <point x="567" y="131" type="line"/>
      <point x="567" y="190" type="line"/>
      <point x="37" y="190" type="line"/>
      <point x="37" y="131" type="line"/>
    </contour>
    <contour>
      <point x="567" y="251" type="line"/>
      <point x="567" y="310" type="line"/>
      <point x="477" y="310" type="line"/>
      <point x="302" y="310" type="line"/>
      <point x="127" y="310" type="line"/>
      <point x="37" y="310" type="line"/>
      <point x="37" y="251" type="line"/>
    </contour>
  </outline>
</glyph>
<glyph name="z.sc" format="2">
  <advance width="599"/>
  <anchor x="296" y="0" name="bottom"/>
  <anchor x="296" y="0" name="bottomC"/>
  <anchor x="570" y="0" name="ogonek"/>
  <anchor x="296" y="560" name="top"/>
  <outline>
    <contour>
      <point x="352" y="218" type="line"/>
      <point x="565" y="417" type="line"/>
      <point x="565" y="560" type="line"/>
      <point x="31" y="560" type="line"/>
      <point x="31" y="397" type="line"/>
      <point x="440" y="397" type="line"/>
      <point x="396" y="465" type="line"/>
      <point x="244" y="340" type="line"/>
      <point x="39" y="143" type="line"/>
      <point x="39" y="0" type="line"/>
      <point x="570" y="0" type="line"/>
      <point x="570" y="163" type="line"/>
      <point x="151" y="163" type="line"/>
      <point x="184" y="81" type="line"/>
    </contour>
  </outline>
</glyph>
<glyph name="zero.tf" format="2">
  <advance width="604"/>
  <outline>
    <contour>
      <point x="489" y="-10"/>
      <point x="580" y="103"/>
      <point x="580" y="330" type="curve" smooth="yes"/>
      <point x="580" y="557"/>
      <point x="489" y="670"/>
      <point x="302" y="670" type="curve" smooth="yes"/>
      <point x="115" y="670"/>
      <point x="24" y="557"/>
      <point x="24" y="330" type="curve" smooth="yes"/>
      <point x="24" y="103"/>
      <point x="115" y="-10"/>
      <point x="302" y="-10" type="curve" smooth="yes"/>
    </contour>
    <contour>
      <point x="259" y="165"/>
      <point x="248" y="198"/>
      <point x="248" y="330" type="curve" smooth="yes"/>
      <point x="248" y="462"/>
      <point x="259" y="495"/>
      <point x="302" y="495" type="curve" smooth="yes"/>
      <point x="345" y="495"/>
      <point x="356" y="462"/>
      <point x="356" y="330" type="curve" smooth="yes"/>
      <point x="356" y="198"/>
      <point x="345" y="165"/>
      <point x="302" y="165" type="curve" smooth="yes"/>
    </contour>
  </outline>
</glyph>
